<svg xmlns="http://www.w3.org/2000/svg" width="2200" height="2200" viewBox="0 50 75 40"><g fill-rule="evenodd" clip-rule="evenodd"><path fill="#FFFFFF" fill-opacity="0" d="M0 0h192.756v192.756H0V0z"/><path d="M17.642 63.38h4.688v7.843c0 .486.033.972.099 1.454a3.385 3.385 0 0 0 2.902 2.902c.378.052.76.083 1.142.094 2.588.075 5.178.075 7.766 0 .382-.011.763-.042 1.143-.094a3.385 3.385 0 0 0 2.902-2.902c.065-.482.098-.968.098-1.454v-13.07h-5.767v11.185c0 .196-.019.392-.056.584a1.227 1.227 0 0 1-1.088.989c-.742.072-1.488.072-2.229 0a1.237 1.237 0 0 1-1.088-.99 3.09 3.09 0 0 1-.056-.584V58.152H17.642v-3.339H58.39l-10.613-8.906H12.635c-.449 0-.896.037-1.339.112a3.279 3.279 0 0 0-2.68 2.68c-.075.442-.113.89-.113 1.339V75.72h9.138V63.38h.001z" fill="#FFFFFF"/><path d="M41.651 58.153v13.219c0 .709-.043 1.417-.128 2.12a6.04 6.04 0 0 1-1.241 2.994 6.04 6.04 0 0 1-4.029 2.275 17.46 17.46 0 0 1-2.12.129H12.286l6.47 5.428h16.893c1.27 0 2.535-.146 3.771-.435a10.138 10.138 0 0 0 7.562-7.562c.29-1.236.436-2.501.436-3.771V58.153h-5.767zM50.621 75.721h5.766V58.153h-5.766v17.568z" fill="#FFFFFF"/><path d="M59.591 87.49H22.534l10.288 8.632h31.16c.575 0 1.15-.05 1.718-.148a3.268 3.268 0 0 0 2.608-2.412c.049-.192.09-.386.122-.581.087-.533.131-1.072.131-1.612v-28.02l-8.97-7.526V87.49z" fill="#FFFFFF"/></g></svg>
