<svg width="122" height="119" viewBox="0 0 122 119" fill="none" xmlns="http://www.w3.org/2000/svg">
<path d="M66.632 17.632H117.96V26.464H66.632V17.632ZM65.48 52.32H74.568V118.368H65.48V52.32ZM69.32 0.479996L78.792 2.39999C74.184 19.552 66.12 35.424 56.392 45.792C54.728 44.128 50.888 41.056 48.584 39.776C58.056 30.304 65.352 15.84 69.32 0.479996ZM90.696 45.792C94.92 74.08 104.008 99.04 121.416 110.048C119.112 111.712 116.168 115.424 114.76 117.856C96.328 104.8 87.24 78.56 82.376 46.944L90.696 45.792ZM113.736 52.32L120.648 58.208C113.48 65.248 103.496 72.928 96.072 77.92L90.184 72.416C97.48 67.296 107.848 58.72 113.736 52.32ZM2.76 21.216H54.984V30.304H2.76V21.216ZM22.216 46.944H45.128V55.776H22.216V46.944ZM25.16 0.735992H34.504V24.672H25.16V0.735992ZM41.672 46.944H50.632C50.632 46.944 50.632 50.016 50.504 51.296C49.608 94.432 48.84 109.024 45.64 113.504C43.592 116.32 41.416 117.216 38.088 117.6C35.016 117.984 29.64 117.856 24.392 117.728C24.136 115.04 23.368 111.328 21.96 108.896C27.08 109.408 31.816 109.536 33.864 109.536C35.784 109.536 36.808 109.152 37.704 107.744C40.008 104.672 41.032 90.464 41.672 48.864V46.944ZM17.608 27.104H26.184V47.968C26.184 69.728 24.136 96.096 7.752 118.624C6.088 116.704 2.888 114.4 0.456 112.864C15.944 92 17.608 66.912 17.608 47.968V27.104ZM106.44 30.176L113.48 35.296C100.808 45.024 76.744 55.52 58.568 60.64C57.288 58.08 54.856 54.624 52.68 52.576C70.856 48.608 94.92 39.008 106.44 30.176Z" fill="#F94C35"/>
</svg>
