<svg width="1569" height="560" viewBox="0 0 1569 560" fill="none" xmlns="http://www.w3.org/2000/svg">
<path d="M917.168 47.96C919.771 48.5147 921.861 49.816 923.44 51.864C925.019 53.8693 925.808 56.1733 925.808 58.776C925.808 62.5307 924.485 65.5173 921.84 67.736C919.237 69.912 915.589 71 910.896 71H889.968V26.072H910.192C914.757 26.072 918.32 27.1173 920.88 29.208C923.483 31.2987 924.784 34.136 924.784 37.72C924.784 40.3653 924.08 42.5627 922.672 44.312C921.307 46.0613 919.472 47.2773 917.168 47.96ZM900.912 44.248H908.08C909.872 44.248 911.237 43.864 912.176 43.096C913.157 42.2853 913.648 41.112 913.648 39.576C913.648 38.04 913.157 36.8667 912.176 36.056C911.237 35.2453 909.872 34.84 908.08 34.84H900.912V44.248ZM908.976 62.168C910.811 62.168 912.219 61.7627 913.2 60.952C914.224 60.0987 914.736 58.8827 914.736 57.304C914.736 55.7253 914.203 54.488 913.136 53.592C912.112 52.696 910.683 52.248 908.848 52.248H900.912V62.168H908.976ZM958.1 41.24C959.38 39.2773 960.98 37.7413 962.9 36.632C964.82 35.48 966.953 34.904 969.3 34.904V46.488H966.292C963.561 46.488 961.513 47.0853 960.148 48.28C958.782 49.432 958.1 51.48 958.1 54.424V71H947.156V35.288H958.1V41.24ZM987.355 53.08C987.355 49.4107 988.037 46.1893 989.403 43.416C990.811 40.6427 992.709 38.5093 995.099 37.016C997.488 35.5227 1000.15 34.776 1003.1 34.776C1005.62 34.776 1007.81 35.288 1009.69 36.312C1011.61 37.336 1013.08 38.68 1014.11 40.344V35.288H1025.05V71H1014.11V65.944C1013.04 67.608 1011.55 68.952 1009.63 69.976C1007.75 71 1005.55 71.512 1003.03 71.512C1000.13 71.512 997.488 70.7653 995.099 69.272C992.709 67.736 990.811 65.5813 989.403 62.808C988.037 59.992 987.355 56.7493 987.355 53.08ZM1014.11 53.144C1014.11 50.4133 1013.34 48.2587 1011.8 46.68C1010.31 45.1013 1008.47 44.312 1006.3 44.312C1004.12 44.312 1002.27 45.1013 1000.73 46.68C999.237 48.216 998.491 50.3493 998.491 53.08C998.491 55.8107 999.237 57.9867 1000.73 59.608C1002.27 61.1867 1004.12 61.976 1006.3 61.976C1008.47 61.976 1010.31 61.1867 1011.8 59.608C1013.34 58.0293 1014.11 55.8747 1014.11 53.144ZM1069.73 34.904C1073.91 34.904 1077.24 36.2693 1079.71 39C1082.23 41.688 1083.49 45.4 1083.49 50.136V71H1072.61V51.608C1072.61 49.2187 1071.99 47.3627 1070.75 46.04C1069.51 44.7173 1067.85 44.056 1065.76 44.056C1063.67 44.056 1062.01 44.7173 1060.77 46.04C1059.53 47.3627 1058.91 49.2187 1058.91 51.608V71H1047.97V35.288H1058.91V40.024C1060.02 38.4453 1061.51 37.208 1063.39 36.312C1065.27 35.3733 1067.38 34.904 1069.73 34.904ZM1103.92 53.08C1103.92 49.4107 1104.6 46.1893 1105.97 43.416C1107.37 40.6427 1109.27 38.5093 1111.66 37.016C1114.05 35.5227 1116.72 34.776 1119.66 34.776C1122.01 34.776 1124.14 35.2667 1126.06 36.248C1128.02 37.2293 1129.56 38.552 1130.67 40.216V23.64H1141.61V71H1130.67V65.88C1129.65 67.5867 1128.17 68.952 1126.25 69.976C1124.38 71 1122.18 71.512 1119.66 71.512C1116.72 71.512 1114.05 70.7653 1111.66 69.272C1109.27 67.736 1107.37 65.5813 1105.97 62.808C1104.6 59.992 1103.92 56.7493 1103.92 53.08ZM1130.67 53.144C1130.67 50.4133 1129.9 48.2587 1128.37 46.68C1126.87 45.1013 1125.04 44.312 1122.86 44.312C1120.69 44.312 1118.83 45.1013 1117.29 46.68C1115.8 48.216 1115.05 50.3493 1115.05 53.08C1115.05 55.8107 1115.8 57.9867 1117.29 59.608C1118.83 61.1867 1120.69 61.976 1122.86 61.976C1125.04 61.976 1126.87 61.1867 1128.37 59.608C1129.9 58.0293 1130.67 55.8747 1130.67 53.144ZM1169.97 31.576C1168.05 31.576 1166.47 31.0213 1165.23 29.912C1164.04 28.76 1163.44 27.352 1163.44 25.688C1163.44 23.9813 1164.04 22.5733 1165.23 21.464C1166.47 20.312 1168.05 19.736 1169.97 19.736C1171.85 19.736 1173.38 20.312 1174.58 21.464C1175.82 22.5733 1176.43 23.9813 1176.43 25.688C1176.43 27.352 1175.82 28.76 1174.58 29.912C1173.38 31.0213 1171.85 31.576 1169.97 31.576ZM1175.47 75.608C1175.47 80.0027 1174.37 83.16 1172.15 85.08C1169.93 87.0427 1166.83 88.024 1162.87 88.024H1158.58V78.744H1161.2C1162.4 78.744 1163.25 78.5093 1163.76 78.04C1164.27 77.5707 1164.53 76.8027 1164.53 75.736V35.288H1175.47V75.608ZM1232.01 52.568C1232.01 53.592 1231.94 54.6587 1231.82 55.768H1207.05C1207.22 57.9867 1207.92 59.6933 1209.16 60.888C1210.44 62.04 1212 62.616 1213.83 62.616C1216.56 62.616 1218.46 61.464 1219.53 59.16H1231.18C1230.58 61.5067 1229.49 63.6187 1227.91 65.496C1226.38 67.3733 1224.43 68.8453 1222.09 69.912C1219.74 70.9787 1217.12 71.512 1214.22 71.512C1210.72 71.512 1207.6 70.7653 1204.87 69.272C1202.14 67.7787 1200.01 65.6453 1198.47 62.872C1196.94 60.0987 1196.17 56.856 1196.17 53.144C1196.17 49.432 1196.91 46.1893 1198.41 43.416C1199.94 40.6427 1202.08 38.5093 1204.81 37.016C1207.54 35.5227 1210.67 34.776 1214.22 34.776C1217.67 34.776 1220.74 35.5013 1223.43 36.952C1226.12 38.4027 1228.21 40.472 1229.7 43.16C1231.24 45.848 1232.01 48.984 1232.01 52.568ZM1220.81 49.688C1220.81 47.8107 1220.17 46.3173 1218.89 45.208C1217.61 44.0987 1216.01 43.544 1214.09 43.544C1212.25 43.544 1210.7 44.0773 1209.42 45.144C1208.18 46.2107 1207.41 47.7253 1207.11 49.688H1220.81ZM1267.31 71.512C1264.19 71.512 1261.42 70.9787 1258.99 69.912C1256.56 68.8453 1254.64 67.3947 1253.23 65.56C1251.82 63.6827 1251.03 61.592 1250.86 59.288H1261.68C1261.8 60.5253 1262.38 61.528 1263.4 62.296C1264.43 63.064 1265.69 63.448 1267.18 63.448C1268.55 63.448 1269.59 63.192 1270.32 62.68C1271.08 62.1253 1271.47 61.4213 1271.47 60.568C1271.47 59.544 1270.94 58.7973 1269.87 58.328C1268.8 57.816 1267.07 57.2613 1264.68 56.664C1262.12 56.0667 1259.99 55.448 1258.28 54.808C1256.58 54.1253 1255.11 53.08 1253.87 51.672C1252.63 50.2213 1252.01 48.28 1252.01 45.848C1252.01 43.8 1252.57 41.944 1253.68 40.28C1254.83 38.5733 1256.49 37.2293 1258.67 36.248C1260.89 35.2667 1263.51 34.776 1266.54 34.776C1271.02 34.776 1274.54 35.8853 1277.1 38.104C1279.7 40.3227 1281.2 43.2667 1281.58 46.936H1271.47C1271.3 45.6987 1270.74 44.7173 1269.8 43.992C1268.91 43.2667 1267.71 42.904 1266.22 42.904C1264.94 42.904 1263.96 43.16 1263.28 43.672C1262.59 44.1413 1262.25 44.8027 1262.25 45.656C1262.25 46.68 1262.79 47.448 1263.85 47.96C1264.96 48.472 1266.67 48.984 1268.97 49.496C1271.62 50.1787 1273.77 50.8613 1275.44 51.544C1277.1 52.184 1278.55 53.2507 1279.79 54.744C1281.07 56.1947 1281.73 58.1573 1281.77 60.632C1281.77 62.7227 1281.18 64.6 1279.98 66.264C1278.83 67.8853 1277.14 69.1653 1274.92 70.104C1272.75 71.0427 1270.21 71.512 1267.31 71.512Z" fill="#F94C35"/>
<path d="M147.296 461.264V464.976H134.88V506H130.4V464.976H117.92V461.264H147.296ZM189.01 470.416C191.655 470.416 194.023 470.971 196.114 472.08C198.247 473.189 199.911 474.896 201.106 477.2C202.343 479.461 202.962 482.235 202.962 485.52V506H198.546V486.032C198.546 482.235 197.586 479.333 195.666 477.328C193.789 475.323 191.207 474.32 187.922 474.32C184.551 474.32 181.863 475.387 179.858 477.52C177.853 479.653 176.85 482.789 176.85 486.928V506H172.37V458.64H176.85V477.008C177.959 474.917 179.581 473.296 181.714 472.144C183.89 470.992 186.322 470.416 189.01 470.416ZM235.35 477.264C236.331 475.088 237.825 473.403 239.83 472.208C241.878 471.013 244.374 470.416 247.318 470.416V475.088H246.102C242.859 475.088 240.257 475.963 238.294 477.712C236.331 479.461 235.35 482.384 235.35 486.48V506H230.87V471.056H235.35V477.264ZM287.354 506.512C284.068 506.512 281.103 505.787 278.458 504.336C275.855 502.843 273.786 500.752 272.25 498.064C270.756 495.333 270.01 492.155 270.01 488.528C270.01 484.901 270.778 481.744 272.314 479.056C273.85 476.325 275.94 474.235 278.586 472.784C281.231 471.291 284.196 470.544 287.482 470.544C290.767 470.544 293.732 471.291 296.378 472.784C299.066 474.235 301.156 476.325 302.65 479.056C304.186 481.744 304.954 484.901 304.954 488.528C304.954 492.112 304.186 495.269 302.65 498C301.114 500.731 299.002 502.843 296.314 504.336C293.626 505.787 290.639 506.512 287.354 506.512ZM287.354 502.608C289.658 502.608 291.791 502.096 293.754 501.072C295.716 500.005 297.295 498.427 298.49 496.336C299.727 494.203 300.346 491.6 300.346 488.528C300.346 485.456 299.748 482.875 298.554 480.784C297.359 478.651 295.78 477.072 293.818 476.048C291.855 474.981 289.722 474.448 287.418 474.448C285.114 474.448 282.98 474.981 281.018 476.048C279.055 477.072 277.476 478.651 276.282 480.784C275.13 482.875 274.554 485.456 274.554 488.528C274.554 491.6 275.13 494.203 276.282 496.336C277.476 498.427 279.034 500.005 280.954 501.072C282.916 502.096 285.05 502.608 287.354 502.608ZM361.392 471.056V506H356.912V499.856C355.888 502.032 354.309 503.696 352.176 504.848C350.043 506 347.653 506.576 345.008 506.576C340.827 506.576 337.413 505.296 334.768 502.736C332.123 500.133 330.8 496.379 330.8 491.472V471.056H335.216V490.96C335.216 494.757 336.155 497.659 338.032 499.664C339.952 501.669 342.555 502.672 345.84 502.672C349.211 502.672 351.899 501.605 353.904 499.472C355.909 497.339 356.912 494.203 356.912 490.064V471.056H361.392ZM404.276 470.544C407.561 470.544 410.42 471.312 412.852 472.848C415.284 474.384 417.033 476.325 418.1 478.672V471.056H422.58V506.896C422.58 510.096 421.876 512.933 420.468 515.408C419.103 517.883 417.183 519.781 414.708 521.104C412.233 522.469 409.417 523.152 406.26 523.152C401.78 523.152 398.047 522.085 395.06 519.952C392.116 517.819 390.281 514.917 389.556 511.248H393.972C394.74 513.68 396.191 515.621 398.324 517.072C400.5 518.523 403.145 519.248 406.26 519.248C408.521 519.248 410.548 518.757 412.34 517.776C414.132 516.837 415.54 515.429 416.564 513.552C417.588 511.675 418.1 509.456 418.1 506.896V498.256C416.991 500.645 415.22 502.629 412.788 504.208C410.399 505.744 407.561 506.512 404.276 506.512C401.076 506.512 398.196 505.765 395.636 504.272C393.119 502.779 391.135 500.667 389.684 497.936C388.276 495.205 387.572 492.048 387.572 488.464C387.572 484.88 388.276 481.744 389.684 479.056C391.135 476.325 393.119 474.235 395.636 472.784C398.196 471.291 401.076 470.544 404.276 470.544ZM418.1 488.528C418.1 485.712 417.524 483.237 416.372 481.104C415.22 478.971 413.641 477.328 411.636 476.176C409.673 475.024 407.497 474.448 405.108 474.448C402.633 474.448 400.415 475.003 398.452 476.112C396.489 477.221 394.932 478.843 393.78 480.976C392.671 483.067 392.116 485.563 392.116 488.464C392.116 491.323 392.671 493.84 393.78 496.016C394.932 498.149 396.489 499.792 398.452 500.944C400.415 502.053 402.633 502.608 405.108 502.608C407.497 502.608 409.673 502.032 411.636 500.88C413.641 499.728 415.22 498.085 416.372 495.952C417.524 493.819 418.1 491.344 418.1 488.528ZM467.448 470.416C470.093 470.416 472.461 470.971 474.552 472.08C476.685 473.189 478.349 474.896 479.544 477.2C480.781 479.461 481.4 482.235 481.4 485.52V506H476.984V486.032C476.984 482.235 476.024 479.333 474.104 477.328C472.226 475.323 469.645 474.32 466.36 474.32C462.989 474.32 460.301 475.387 458.296 477.52C456.29 479.653 455.288 482.789 455.288 486.928V506H450.808V458.64H455.288V477.008C456.397 474.917 458.018 473.296 460.152 472.144C462.328 470.992 464.76 470.416 467.448 470.416ZM542.822 488.464C542.822 484.88 543.547 481.744 544.998 479.056C546.449 476.325 548.433 474.235 550.95 472.784C553.51 471.291 556.39 470.544 559.59 470.544C562.662 470.544 565.435 471.291 567.91 472.784C570.385 474.277 572.198 476.219 573.35 478.608V458.64H577.83V506H573.35V498.192C572.283 500.624 570.534 502.629 568.102 504.208C565.67 505.744 562.811 506.512 559.526 506.512C556.326 506.512 553.446 505.765 550.886 504.272C548.369 502.779 546.385 500.667 544.934 497.936C543.526 495.205 542.822 492.048 542.822 488.464ZM573.35 488.528C573.35 485.712 572.774 483.237 571.622 481.104C570.47 478.971 568.891 477.328 566.886 476.176C564.923 475.024 562.747 474.448 560.358 474.448C557.883 474.448 555.665 475.003 553.702 476.112C551.739 477.221 550.182 478.843 549.03 480.976C547.921 483.067 547.366 485.563 547.366 488.464C547.366 491.323 547.921 493.84 549.03 496.016C550.182 498.149 551.739 499.792 553.702 500.944C555.665 502.053 557.883 502.608 560.358 502.608C562.747 502.608 564.923 502.032 566.886 500.88C568.891 499.728 570.47 498.085 571.622 495.952C572.774 493.819 573.35 491.344 573.35 488.528ZM637.674 486.736C637.674 488.272 637.631 489.445 637.546 490.256H608.554C608.682 492.901 609.322 495.163 610.474 497.04C611.626 498.917 613.14 500.347 615.018 501.328C616.895 502.267 618.943 502.736 621.162 502.736C624.063 502.736 626.495 502.032 628.458 500.624C630.463 499.216 631.786 497.317 632.426 494.928H637.162C636.308 498.341 634.474 501.136 631.658 503.312C628.884 505.445 625.386 506.512 621.162 506.512C617.876 506.512 614.932 505.787 612.33 504.336C609.727 502.843 607.679 500.752 606.186 498.064C604.735 495.333 604.01 492.155 604.01 488.528C604.01 484.901 604.735 481.723 606.186 478.992C607.636 476.261 609.663 474.171 612.266 472.72C614.868 471.269 617.834 470.544 621.162 470.544C624.49 470.544 627.391 471.269 629.866 472.72C632.383 474.171 634.303 476.133 635.626 478.608C636.991 481.04 637.674 483.749 637.674 486.736ZM633.13 486.608C633.172 484.005 632.639 481.787 631.53 479.952C630.463 478.117 628.991 476.731 627.114 475.792C625.236 474.853 623.188 474.384 620.97 474.384C617.642 474.384 614.804 475.451 612.458 477.584C610.111 479.717 608.81 482.725 608.554 486.608H633.13ZM675.902 506.512C671.891 506.512 668.606 505.595 666.046 503.76C663.529 501.883 662.121 499.344 661.822 496.144H666.43C666.643 498.107 667.561 499.707 669.182 500.944C670.846 502.139 673.065 502.736 675.838 502.736C678.27 502.736 680.169 502.16 681.534 501.008C682.942 499.856 683.646 498.427 683.646 496.72C683.646 495.525 683.262 494.544 682.494 493.776C681.726 493.008 680.745 492.411 679.55 491.984C678.398 491.515 676.819 491.024 674.814 490.512C672.211 489.829 670.099 489.147 668.478 488.464C666.857 487.781 665.47 486.779 664.318 485.456C663.209 484.091 662.654 482.277 662.654 480.016C662.654 478.309 663.166 476.731 664.19 475.28C665.214 473.829 666.665 472.677 668.542 471.824C670.419 470.971 672.553 470.544 674.942 470.544C678.697 470.544 681.726 471.504 684.03 473.424C686.334 475.301 687.571 477.904 687.742 481.232H683.262C683.134 479.184 682.323 477.541 680.83 476.304C679.379 475.024 677.374 474.384 674.814 474.384C672.553 474.384 670.718 474.917 669.31 475.984C667.902 477.051 667.198 478.373 667.198 479.952C667.198 481.317 667.603 482.448 668.414 483.344C669.267 484.197 670.313 484.88 671.55 485.392C672.787 485.861 674.451 486.395 676.542 486.992C679.059 487.675 681.065 488.336 682.558 488.976C684.051 489.616 685.331 490.555 686.398 491.792C687.465 493.029 688.019 494.672 688.062 496.72C688.062 498.597 687.55 500.283 686.526 501.776C685.502 503.227 684.073 504.379 682.238 505.232C680.403 506.085 678.291 506.512 675.902 506.512ZM746.111 486.736C746.111 488.272 746.068 489.445 745.983 490.256H716.991C717.119 492.901 717.759 495.163 718.911 497.04C720.063 498.917 721.578 500.347 723.455 501.328C725.332 502.267 727.38 502.736 729.599 502.736C732.5 502.736 734.932 502.032 736.895 500.624C738.9 499.216 740.223 497.317 740.863 494.928H745.599C744.746 498.341 742.911 501.136 740.095 503.312C737.322 505.445 733.823 506.512 729.599 506.512C726.314 506.512 723.37 505.787 720.767 504.336C718.164 502.843 716.116 500.752 714.623 498.064C713.172 495.333 712.447 492.155 712.447 488.528C712.447 484.901 713.172 481.723 714.623 478.992C716.074 476.261 718.1 474.171 720.703 472.72C723.306 471.269 726.271 470.544 729.599 470.544C732.927 470.544 735.828 471.269 738.303 472.72C740.82 474.171 742.74 476.133 744.063 478.608C745.428 481.04 746.111 483.749 746.111 486.736ZM741.567 486.608C741.61 484.005 741.076 481.787 739.967 479.952C738.9 478.117 737.428 476.731 735.551 475.792C733.674 474.853 731.626 474.384 729.407 474.384C726.079 474.384 723.242 475.451 720.895 477.584C718.548 479.717 717.247 482.725 716.991 486.608H741.567ZM776.788 477.264C777.769 475.088 779.262 473.403 781.268 472.208C783.316 471.013 785.812 470.416 788.756 470.416V475.088H787.54C784.297 475.088 781.694 475.963 779.732 477.712C777.769 479.461 776.788 482.384 776.788 486.48V506H772.308V471.056H776.788V477.264ZM819.319 474.832V496.528C819.319 498.661 819.724 500.133 820.535 500.944C821.346 501.755 822.775 502.16 824.823 502.16H828.919V506H824.119C820.962 506 818.615 505.275 817.079 503.824C815.543 502.331 814.775 499.899 814.775 496.528V474.832H809.911V471.056H814.775V462.288H819.319V471.056H828.919V474.832H819.319ZM866.34 506.512C862.329 506.512 859.044 505.595 856.484 503.76C853.966 501.883 852.558 499.344 852.26 496.144H856.868C857.081 498.107 857.998 499.707 859.62 500.944C861.284 502.139 863.502 502.736 866.276 502.736C868.708 502.736 870.606 502.16 871.972 501.008C873.38 499.856 874.084 498.427 874.084 496.72C874.084 495.525 873.7 494.544 872.932 493.776C872.164 493.008 871.182 492.411 869.988 491.984C868.836 491.515 867.257 491.024 865.252 490.512C862.649 489.829 860.537 489.147 858.916 488.464C857.294 487.781 855.908 486.779 854.756 485.456C853.646 484.091 853.092 482.277 853.092 480.016C853.092 478.309 853.604 476.731 854.628 475.28C855.652 473.829 857.102 472.677 858.98 471.824C860.857 470.971 862.99 470.544 865.38 470.544C869.134 470.544 872.164 471.504 874.468 473.424C876.772 475.301 878.009 477.904 878.18 481.232H873.7C873.572 479.184 872.761 477.541 871.268 476.304C869.817 475.024 867.812 474.384 865.252 474.384C862.99 474.384 861.156 474.917 859.748 475.984C858.34 477.051 857.635 478.373 857.635 479.952C857.635 481.317 858.041 482.448 858.852 483.344C859.705 484.197 860.75 484.88 861.988 485.392C863.225 485.861 864.889 486.395 866.98 486.992C869.497 487.675 871.502 488.336 872.996 488.976C874.489 489.616 875.769 490.555 876.836 491.792C877.902 493.029 878.457 494.672 878.5 496.72C878.5 498.597 877.988 500.283 876.964 501.776C875.94 503.227 874.51 504.379 872.676 505.232C870.841 506.085 868.729 506.512 866.34 506.512ZM938.447 488.464C938.447 484.88 939.151 481.744 940.559 479.056C942.01 476.325 943.994 474.235 946.511 472.784C949.071 471.291 951.951 470.544 955.151 470.544C958.479 470.544 961.338 471.312 963.727 472.848C966.159 474.384 967.908 476.347 968.975 478.736V471.056H973.455V506H968.975V498.256C967.866 500.645 966.095 502.629 963.663 504.208C961.274 505.744 958.415 506.512 955.087 506.512C951.93 506.512 949.071 505.765 946.511 504.272C943.994 502.779 942.01 500.667 940.559 497.936C939.151 495.205 938.447 492.048 938.447 488.464ZM968.975 488.528C968.975 485.712 968.399 483.237 967.247 481.104C966.095 478.971 964.516 477.328 962.511 476.176C960.548 475.024 958.372 474.448 955.983 474.448C953.508 474.448 951.29 475.003 949.327 476.112C947.364 477.221 945.807 478.843 944.655 480.976C943.546 483.067 942.991 485.563 942.991 488.464C942.991 491.323 943.546 493.84 944.655 496.016C945.807 498.149 947.364 499.792 949.327 500.944C951.29 502.053 953.508 502.608 955.983 502.608C958.372 502.608 960.548 502.032 962.511 500.88C964.516 499.728 966.095 498.085 967.247 495.952C968.399 493.819 968.975 491.344 968.975 488.528ZM1018.07 470.416C1022.25 470.416 1025.66 471.717 1028.31 474.32C1030.95 476.88 1032.27 480.613 1032.27 485.52V506H1027.86V486.032C1027.86 482.235 1026.9 479.333 1024.98 477.328C1023.1 475.323 1020.52 474.32 1017.23 474.32C1013.86 474.32 1011.18 475.387 1009.17 477.52C1007.17 479.653 1006.16 482.789 1006.16 486.928V506H1001.68V471.056H1006.16V477.008C1007.27 474.875 1008.87 473.253 1010.96 472.144C1013.05 470.992 1015.42 470.416 1018.07 470.416ZM1058.13 488.464C1058.13 484.88 1058.86 481.744 1060.31 479.056C1061.76 476.325 1063.75 474.235 1066.26 472.784C1068.82 471.291 1071.7 470.544 1074.9 470.544C1077.97 470.544 1080.75 471.291 1083.22 472.784C1085.7 474.277 1087.51 476.219 1088.66 478.608V458.64H1093.14V506H1088.66V498.192C1087.6 500.624 1085.85 502.629 1083.41 504.208C1080.98 505.744 1078.12 506.512 1074.84 506.512C1071.64 506.512 1068.76 505.765 1066.2 504.272C1063.68 502.779 1061.7 500.667 1060.25 497.936C1058.84 495.205 1058.13 492.048 1058.13 488.464ZM1088.66 488.528C1088.66 485.712 1088.09 483.237 1086.93 481.104C1085.78 478.971 1084.2 477.328 1082.2 476.176C1080.24 475.024 1078.06 474.448 1075.67 474.448C1073.2 474.448 1070.98 475.003 1069.01 476.112C1067.05 477.221 1065.49 478.843 1064.34 480.976C1063.23 483.067 1062.68 485.563 1062.68 488.464C1062.68 491.323 1063.23 493.84 1064.34 496.016C1065.49 498.149 1067.05 499.792 1069.01 500.944C1070.98 502.053 1073.2 502.608 1075.67 502.608C1078.06 502.608 1080.24 502.032 1082.2 500.88C1084.2 499.728 1085.78 498.085 1086.93 495.952C1088.09 493.819 1088.66 491.344 1088.66 488.528ZM1154.88 488.528C1154.88 484.901 1155.61 481.744 1157.06 479.056C1158.51 476.325 1160.52 474.235 1163.08 472.784C1165.64 471.291 1168.56 470.544 1171.84 470.544C1176.15 470.544 1179.7 471.611 1182.47 473.744C1185.28 475.877 1187.1 478.779 1187.91 482.448H1183.11C1182.51 479.931 1181.21 477.968 1179.2 476.56C1177.24 475.109 1174.79 474.384 1171.84 474.384C1169.5 474.384 1167.39 474.917 1165.51 475.984C1163.63 477.051 1162.14 478.651 1161.03 480.784C1159.96 482.875 1159.43 485.456 1159.43 488.528C1159.43 491.6 1159.96 494.203 1161.03 496.336C1162.14 498.469 1163.63 500.069 1165.51 501.136C1167.39 502.203 1169.5 502.736 1171.84 502.736C1174.79 502.736 1177.24 502.032 1179.2 500.624C1181.21 499.173 1182.51 497.168 1183.11 494.608H1187.91C1187.1 498.192 1185.28 501.072 1182.47 503.248C1179.65 505.424 1176.11 506.512 1171.84 506.512C1168.56 506.512 1165.64 505.787 1163.08 504.336C1160.52 502.843 1158.51 500.752 1157.06 498.064C1155.61 495.333 1154.88 492.155 1154.88 488.528ZM1216.42 464.464C1215.53 464.464 1214.76 464.144 1214.12 463.504C1213.48 462.864 1213.16 462.075 1213.16 461.136C1213.16 460.197 1213.48 459.429 1214.12 458.832C1214.76 458.192 1215.53 457.872 1216.42 457.872C1217.32 457.872 1218.09 458.192 1218.73 458.832C1219.37 459.429 1219.69 460.197 1219.69 461.136C1219.69 462.075 1219.37 462.864 1218.73 463.504C1218.09 464.144 1217.32 464.464 1216.42 464.464ZM1218.66 471.056V506H1214.18V471.056H1218.66ZM1252.63 474.832V496.528C1252.63 498.661 1253.04 500.133 1253.85 500.944C1254.66 501.755 1256.09 502.16 1258.14 502.16H1262.23V506H1257.43C1254.27 506 1251.93 505.275 1250.39 503.824C1248.86 502.331 1248.09 499.899 1248.09 496.528V474.832H1243.22V471.056H1248.09V462.288H1252.63V471.056H1262.23V474.832H1252.63ZM1289.86 464.464C1288.96 464.464 1288.2 464.144 1287.56 463.504C1286.92 462.864 1286.6 462.075 1286.6 461.136C1286.6 460.197 1286.92 459.429 1287.56 458.832C1288.2 458.192 1288.96 457.872 1289.86 457.872C1290.76 457.872 1291.52 458.192 1292.16 458.832C1292.8 459.429 1293.12 460.197 1293.12 461.136C1293.12 462.075 1292.8 462.864 1292.16 463.504C1291.52 464.144 1290.76 464.464 1289.86 464.464ZM1292.1 471.056V506H1287.62V471.056H1292.1ZM1351.86 486.736C1351.86 488.272 1351.82 489.445 1351.73 490.256H1322.74C1322.87 492.901 1323.51 495.163 1324.66 497.04C1325.81 498.917 1327.33 500.347 1329.21 501.328C1331.08 502.267 1333.13 502.736 1335.35 502.736C1338.25 502.736 1340.68 502.032 1342.65 500.624C1344.65 499.216 1345.97 497.317 1346.61 494.928H1351.35C1350.5 498.341 1348.66 501.136 1345.85 503.312C1343.07 505.445 1339.57 506.512 1335.35 506.512C1332.06 506.512 1329.12 505.787 1326.52 504.336C1323.91 502.843 1321.87 500.752 1320.37 498.064C1318.92 495.333 1318.2 492.155 1318.2 488.528C1318.2 484.901 1318.92 481.723 1320.37 478.992C1321.82 476.261 1323.85 474.171 1326.45 472.72C1329.06 471.269 1332.02 470.544 1335.35 470.544C1338.68 470.544 1341.58 471.269 1344.05 472.72C1346.57 474.171 1348.49 476.133 1349.81 478.608C1351.18 481.04 1351.86 483.749 1351.86 486.736ZM1347.32 486.608C1347.36 484.005 1346.83 481.787 1345.72 479.952C1344.65 478.117 1343.18 476.731 1341.3 475.792C1339.42 474.853 1337.38 474.384 1335.16 474.384C1331.83 474.384 1328.99 475.451 1326.65 477.584C1324.3 479.717 1323 482.725 1322.74 486.608H1347.32ZM1390.09 506.512C1386.08 506.512 1382.79 505.595 1380.23 503.76C1377.72 501.883 1376.31 499.344 1376.01 496.144H1380.62C1380.83 498.107 1381.75 499.707 1383.37 500.944C1385.03 502.139 1387.25 502.736 1390.03 502.736C1392.46 502.736 1394.36 502.16 1395.72 501.008C1397.13 499.856 1397.83 498.427 1397.83 496.72C1397.83 495.525 1397.45 494.544 1396.68 493.776C1395.91 493.008 1394.93 492.411 1393.74 491.984C1392.59 491.515 1391.01 491.024 1389 490.512C1386.4 489.829 1384.29 489.147 1382.67 488.464C1381.04 487.781 1379.66 486.779 1378.51 485.456C1377.4 484.091 1376.84 482.277 1376.84 480.016C1376.84 478.309 1377.35 476.731 1378.38 475.28C1379.4 473.829 1380.85 472.677 1382.73 471.824C1384.61 470.971 1386.74 470.544 1389.13 470.544C1392.88 470.544 1395.91 471.504 1398.22 473.424C1400.52 475.301 1401.76 477.904 1401.93 481.232H1397.45C1397.32 479.184 1396.51 477.541 1395.02 476.304C1393.57 475.024 1391.56 474.384 1389 474.384C1386.74 474.384 1384.91 474.917 1383.5 475.984C1382.09 477.051 1381.39 478.373 1381.39 479.952C1381.39 481.317 1381.79 482.448 1382.6 483.344C1383.45 484.197 1384.5 484.88 1385.74 485.392C1386.97 485.861 1388.64 486.395 1390.73 486.992C1393.25 487.675 1395.25 488.336 1396.75 488.976C1398.24 489.616 1399.52 490.555 1400.59 491.792C1401.65 493.029 1402.21 494.672 1402.25 496.72C1402.25 498.597 1401.74 500.283 1400.71 501.776C1399.69 503.227 1398.26 504.379 1396.43 505.232C1394.59 506.085 1392.48 506.512 1390.09 506.512Z" fill="#F94C35"/>
<path d="M422.01 387.6C424.81 395.6 430.21 399.8 438.21 400.2L452.61 402C462.21 403.2 467.01 407.8 467.01 415.8C467.01 424.6 462.01 429 452.01 429H318.81C308.81 429 303.81 424.6 303.81 415.8C303.81 407.4 308.41 402.6 317.61 401.4L338.01 399C343.21 398.2 346.81 396.2 348.81 393C351.21 389.8 351.41 385.8 349.41 381L323.61 307.8H199.41L173.61 379.8C170.01 390.6 173.61 396.6 184.41 397.8L205.41 400.8C214.61 402 219.21 407 219.21 415.8C219.21 424.6 214.21 429 204.21 429H103.41C93.4102 429 88.4102 424.6 88.4102 415.8C88.4102 407 93.0102 402 102.21 400.8L125.61 397.2C133.61 396 139.01 391.6 141.81 384L260.01 60C263.21 52 268.81 48 276.81 48H285.81C293.81 48 299.41 52 302.61 60L422.01 387.6ZM209.61 278.4H314.01L263.01 131.4L209.61 278.4ZM407.971 174C407.971 164.8 412.571 159.6 421.771 158.4L437.971 156C446.771 154.8 451.771 149.6 452.971 140.4C456.171 114.8 460.971 94.2 467.371 78.6C474.171 62.6 483.171 48.8 494.371 37.2C507.971 23.6 521.971 14 536.371 8.39998C551.171 2.79998 565.971 -2.00272e-05 580.771 -2.00272e-05C595.971 -2.00272e-05 608.771 2.79998 619.171 8.39998C629.571 13.6 636.371 21.4 639.571 31.8C639.571 41 636.371 48.8 629.971 55.2C623.571 61.2 615.171 64.2 604.771 64.2C589.571 64.2 574.371 55 559.171 36.6C556.371 33 552.971 31.2 548.971 31.2C546.171 31.2 543.571 32.4 541.171 34.8C528.771 50 520.971 66.4 517.771 84C514.571 101.6 512.971 120 512.971 139.2C512.971 149.6 517.971 154.8 527.971 154.8H569.371C579.371 154.8 584.371 159.8 584.371 169.8V173.4C584.371 183.4 579.371 188.4 569.371 188.4H529.171C519.171 188.4 514.171 193.4 514.171 203.4V308.4C514.171 321.2 514.171 333.8 514.171 346.2C514.571 358.6 514.971 371.2 515.371 384C515.371 393.2 519.771 398.6 528.571 400.2L548.971 403.8C558.171 405.8 562.771 410.4 562.771 417.6C562.771 425.2 557.771 429 547.771 429H424.171C414.171 429 409.171 425.2 409.171 417.6C409.171 410.4 413.771 405.8 422.971 403.8L436.171 401.4C444.971 399.8 449.371 394.4 449.371 385.2C449.771 372.4 449.971 359.6 449.971 346.8C450.371 334 450.571 321.2 450.571 308.4V203.4C450.571 193.4 445.571 188.4 435.571 188.4H422.971C412.971 188.4 407.971 183.6 407.971 174ZM647.491 147.6C649.091 148.8 650.291 150.4 651.091 152.4C651.891 154.4 652.491 157.6 652.891 162L657.091 211.8C667.891 190.6 680.291 174.2 694.291 162.6C708.691 150.6 723.291 144.6 738.091 144.6C746.091 144.6 754.291 147 762.691 151.8C771.091 156.6 776.491 164.8 778.891 176.4C778.891 187.6 775.491 196.6 768.691 203.4C761.891 209.8 752.691 213 741.091 213C727.491 213 714.691 206.8 702.691 194.4L699.691 191.4C690.891 199.4 682.891 208.4 675.691 218.4C668.891 228 662.891 239.6 657.691 253.2V384C658.091 393.2 662.691 398.6 671.491 400.2L690.691 403.8C699.891 405.8 704.491 410.4 704.491 417.6C704.491 425.2 699.491 429 689.491 429H569.491C559.491 429 554.491 425.2 554.491 417.6C554.491 410.4 559.091 405.8 568.291 403.8L580.291 401.4C589.091 399.4 593.691 394.2 594.091 385.8V277.2C594.091 269.2 594.091 262 594.091 255.6C594.091 249.2 593.891 243.6 593.491 238.8C593.091 235.6 592.891 232.6 592.891 229.8C592.891 227 592.891 224 592.891 220.8C592.091 211.6 587.291 206.4 578.491 205.2L564.091 203.4C554.891 202.2 550.291 198 550.291 190.8C550.291 184 554.291 179 562.291 175.8L631.891 148.8C635.491 147.2 638.891 146.4 642.091 146.4C644.491 146.4 646.291 146.8 647.491 147.6ZM848.616 385.8C849.016 394.2 853.616 399.4 862.416 401.4L872.616 403.2C881.416 405.2 885.816 410 885.816 417.6C885.816 425.2 880.816 429 870.816 429H760.416C750.416 429 745.416 425.2 745.416 417.6C745.416 410.4 750.016 405.8 759.216 403.8L771.216 401.4C780.016 399.4 784.616 394.2 785.016 385.8V279.6C785.016 271.6 785.016 264.4 785.016 258C785.016 251.6 784.816 245.6 784.416 240C784.016 236.8 783.816 233.6 783.816 230.4C783.816 227.2 783.816 224 783.816 220.8C783.016 211.6 778.216 206.4 769.416 205.2L755.016 203.4C745.816 202.2 741.216 198 741.216 190.8C741.216 184.4 745.216 179.6 753.216 176.4L831.216 148.2C833.216 147.4 835.016 146.8 836.616 146.4C838.216 146 839.816 145.8 841.416 145.8C843.416 145.8 845.016 146.4 846.216 147.6C849.016 150 850.416 154.8 850.416 162L848.616 230.4V385.8ZM816.216 89.4C803.416 89.4 792.816 85.6 784.416 78C776.416 70.4 772.416 60.4 772.416 48C772.416 35.6 776.416 25.6 784.416 18C792.816 10.4 803.416 6.59997 816.216 6.59997C828.616 6.59997 838.816 10.4 846.816 18C855.216 25.6 859.416 35.6 859.416 48C859.416 60.4 855.216 70.4 846.816 78C838.816 85.6 828.616 89.4 816.216 89.4ZM1082.81 364.8C1087.21 358.8 1091.41 355.8 1095.41 355.8C1096.61 355.8 1098.01 356.2 1099.61 357C1105.61 360.6 1106.81 366.6 1103.21 375C1094.01 395.4 1080.01 411 1061.21 421.8C1042.81 432.6 1021.01 438 995.812 438C974.212 438 955.012 434.4 938.212 427.2C921.412 419.6 907.212 409.4 895.612 396.6C884.412 383.4 875.812 368 869.812 350.4C864.212 332.4 861.412 313 861.412 292.2C861.412 271.8 864.812 252.6 871.612 234.6C878.412 216.6 888.012 201 900.412 187.8C912.812 174.2 927.612 163.6 944.812 156C962.012 148.4 981.212 144.6 1002.41 144.6C1014.41 144.6 1026.21 146.2 1037.81 149.4C1049.81 152.6 1060.61 157.6 1070.21 164.4C1080.21 170.8 1088.61 179 1095.41 189C1102.21 198.6 1106.21 209.8 1107.41 222.6C1104.61 239 1094.41 247.2 1076.81 247.2C1056.41 247.2 1044.61 234.8 1041.41 210L1037.21 187.2C1035.61 180 1032.21 175.6 1027.01 174C1022.21 172.4 1016.81 171.6 1010.81 171.6C996.012 171.6 983.412 175.2 973.012 182.4C962.612 189.2 954.212 198.2 947.812 209.4C941.412 220.2 936.612 232.4 933.412 246C930.612 259.2 929.212 272 929.212 284.4C929.212 322 937.412 350.2 953.812 369C970.212 387.8 991.212 397.2 1016.81 397.2C1044.01 397.2 1066.01 386.4 1082.81 364.8ZM1350.32 388.2C1351.12 387.4 1353.72 389 1358.12 393C1362.92 397.8 1362.72 403.8 1357.52 411C1351.12 420.2 1344.12 426.4 1336.52 429.6C1328.92 433.2 1319.92 435 1309.52 435C1293.12 435 1280.12 431.6 1270.52 424.8C1261.32 417.6 1254.92 408.2 1251.32 396.6C1238.52 409.4 1226.12 419.6 1214.12 427.2C1202.12 434.4 1186.72 438 1167.92 438C1145.92 438 1127.32 432 1112.12 420C1097.32 408 1089.92 390.4 1089.92 367.2C1089.92 351.6 1094.12 338.2 1102.52 327C1111.32 315.8 1122.12 306.2 1134.92 298.2C1148.12 290.2 1162.12 283.6 1176.92 278.4C1191.72 273.2 1205.52 268.8 1218.32 265.2L1248.92 256.2V240.6C1248.92 214.2 1244.92 196.2 1236.92 186.6C1229.32 176.6 1216.12 171.6 1197.32 171.6C1195.32 171.6 1193.32 171.6 1191.32 171.6C1189.72 171.6 1187.92 171.8 1185.92 172.2C1177.92 172.6 1172.92 177.4 1170.92 186.6L1165.52 211.2C1160.72 235.2 1148.72 247.2 1129.52 247.2C1121.52 247.2 1114.72 244.8 1109.12 240C1103.52 234.8 1100.32 228.2 1099.52 220.2C1103.12 197.8 1115.12 179.6 1135.52 165.6C1156.32 151.6 1183.52 144.6 1217.12 144.6C1250.32 144.6 1274.52 152.6 1289.72 168.6C1304.92 184.6 1312.52 212.8 1312.52 253.2V373.8C1312.52 391.8 1318.12 400.8 1329.32 400.8C1334.12 400.8 1338.52 399.4 1342.52 396.6C1345.32 394.6 1347.12 393 1347.92 391.8C1348.72 390.2 1349.52 389 1350.32 388.2ZM1248.92 373.2V280.2C1239.32 282.6 1228.92 285.6 1217.72 289.2C1206.92 292.8 1196.72 297.4 1187.12 303C1177.52 308.6 1169.52 315.6 1163.12 324C1156.72 332 1153.52 341.8 1153.52 353.4C1153.52 367 1157.52 377.6 1165.52 385.2C1173.92 392.8 1184.92 396.6 1198.52 396.6C1206.52 396.6 1213.92 395 1220.72 391.8C1227.92 388.6 1237.32 382.4 1248.92 373.2ZM1393.71 438C1380.91 438 1369.91 433.4 1360.71 424.2C1351.51 415 1346.91 404 1346.91 391.2C1346.91 378.4 1351.51 367.4 1360.71 358.2C1369.91 349 1380.91 344.4 1393.71 344.4C1406.51 344.4 1417.51 349 1426.71 358.2C1435.91 367.4 1440.51 378.4 1440.51 391.2C1440.51 404 1435.91 415 1426.71 424.2C1417.51 433.4 1406.51 438 1393.71 438Z" fill="white"/>
</svg>
