<svg width="1569" height="492" viewBox="0 0 1569 492" fill="none" xmlns="http://www.w3.org/2000/svg">
<path d="M360.168 28.96C362.771 29.5147 364.861 30.816 366.44 32.864C368.019 34.8693 368.808 37.1733 368.808 39.776C368.808 43.5307 367.485 46.5173 364.84 48.736C362.237 50.912 358.589 52 353.896 52H332.968V7.072H353.192C357.757 7.072 361.32 8.11733 363.88 10.208C366.483 12.2987 367.784 15.136 367.784 18.72C367.784 21.3653 367.08 23.5627 365.672 25.312C364.307 27.0613 362.472 28.2773 360.168 28.96ZM343.912 25.248H351.08C352.872 25.248 354.237 24.864 355.176 24.096C356.157 23.2853 356.648 22.112 356.648 20.576C356.648 19.04 356.157 17.8667 355.176 17.056C354.237 16.2453 352.872 15.84 351.08 15.84H343.912V25.248ZM351.976 43.168C353.811 43.168 355.219 42.7627 356.2 41.952C357.224 41.0987 357.736 39.8827 357.736 38.304C357.736 36.7253 357.203 35.488 356.136 34.592C355.112 33.696 353.683 33.248 351.848 33.248H343.912V43.168H351.976ZM401.1 22.24C402.38 20.2773 403.98 18.7413 405.9 17.632C407.82 16.48 409.953 15.904 412.3 15.904V27.488H409.292C406.561 27.488 404.513 28.0853 403.148 29.28C401.782 30.432 401.1 32.48 401.1 35.424V52H390.156V16.288H401.1V22.24ZM430.355 34.08C430.355 30.4107 431.037 27.1893 432.403 24.416C433.811 21.6427 435.709 19.5093 438.099 18.016C440.488 16.5227 443.155 15.776 446.099 15.776C448.616 15.776 450.813 16.288 452.691 17.312C454.611 18.336 456.083 19.68 457.107 21.344V16.288H468.051V52H457.107V46.944C456.04 48.608 454.547 49.952 452.627 50.976C450.749 52 448.552 52.512 446.035 52.512C443.133 52.512 440.488 51.7653 438.099 50.272C435.709 48.736 433.811 46.5813 432.403 43.808C431.037 40.992 430.355 37.7493 430.355 34.08ZM457.107 34.144C457.107 31.4133 456.339 29.2587 454.803 27.68C453.309 26.1013 451.475 25.312 449.299 25.312C447.123 25.312 445.267 26.1013 443.731 27.68C442.237 29.216 441.491 31.3493 441.491 34.08C441.491 36.8107 442.237 38.9867 443.731 40.608C445.267 42.1867 447.123 42.976 449.299 42.976C451.475 42.976 453.309 42.1867 454.803 40.608C456.339 39.0293 457.107 36.8747 457.107 34.144ZM512.728 15.904C516.909 15.904 520.237 17.2693 522.712 20C525.229 22.688 526.488 26.4 526.488 31.136V52H515.608V32.608C515.608 30.2187 514.989 28.3627 513.752 27.04C512.515 25.7173 510.851 25.056 508.76 25.056C506.669 25.056 505.005 25.7173 503.768 27.04C502.531 28.3627 501.912 30.2187 501.912 32.608V52H490.968V16.288H501.912V21.024C503.021 19.4453 504.515 18.208 506.392 17.312C508.269 16.3733 510.381 15.904 512.728 15.904ZM546.917 34.08C546.917 30.4107 547.6 27.1893 548.965 24.416C550.373 21.6427 552.272 19.5093 554.661 18.016C557.05 16.5227 559.717 15.776 562.661 15.776C565.008 15.776 567.141 16.2667 569.061 17.248C571.024 18.2293 572.56 19.552 573.669 21.216V4.64H584.613V52H573.669V46.88C572.645 48.5867 571.173 49.952 569.253 50.976C567.376 52 565.178 52.512 562.661 52.512C559.717 52.512 557.05 51.7653 554.661 50.272C552.272 48.736 550.373 46.5813 548.965 43.808C547.6 40.992 546.917 37.7493 546.917 34.08ZM573.669 34.144C573.669 31.4133 572.901 29.2587 571.365 27.68C569.872 26.1013 568.037 25.312 565.861 25.312C563.685 25.312 561.829 26.1013 560.293 27.68C558.8 29.216 558.053 31.3493 558.053 34.08C558.053 36.8107 558.8 38.9867 560.293 40.608C561.829 42.1867 563.685 42.976 565.861 42.976C568.037 42.976 569.872 42.1867 571.365 40.608C572.901 39.0293 573.669 36.8747 573.669 34.144ZM612.97 12.576C611.051 12.576 609.472 12.0213 608.235 10.912C607.04 9.76 606.443 8.352 606.443 6.688C606.443 4.98133 607.04 3.57333 608.235 2.464C609.472 1.312 611.051 0.735996 612.97 0.735996C614.848 0.735996 616.384 1.312 617.579 2.464C618.816 3.57333 619.435 4.98133 619.435 6.688C619.435 8.352 618.816 9.76 617.579 10.912C616.384 12.0213 614.848 12.576 612.97 12.576ZM618.475 56.608C618.475 61.0027 617.365 64.16 615.147 66.08C612.928 68.0427 609.835 69.024 605.867 69.024H601.578V59.744H604.203C605.397 59.744 606.251 59.5093 606.763 59.04C607.275 58.5707 607.531 57.8027 607.531 56.736V16.288H618.475V56.608ZM675.007 33.568C675.007 34.592 674.943 35.6587 674.815 36.768H650.047C650.218 38.9867 650.922 40.6933 652.159 41.888C653.439 43.04 654.996 43.616 656.831 43.616C659.562 43.616 661.46 42.464 662.527 40.16H674.175C673.578 42.5067 672.49 44.6187 670.911 46.496C669.375 48.3733 667.434 49.8453 665.087 50.912C662.74 51.9787 660.116 52.512 657.215 52.512C653.716 52.512 650.602 51.7653 647.871 50.272C645.14 48.7787 643.007 46.6453 641.471 43.872C639.935 41.0987 639.167 37.856 639.167 34.144C639.167 30.432 639.914 27.1893 641.407 24.416C642.943 21.6427 645.076 19.5093 647.807 18.016C650.538 16.5227 653.674 15.776 657.215 15.776C660.671 15.776 663.743 16.5013 666.431 17.952C669.119 19.4027 671.21 21.472 672.703 24.16C674.239 26.848 675.007 29.984 675.007 33.568ZM663.807 30.688C663.807 28.8107 663.167 27.3173 661.887 26.208C660.607 25.0987 659.007 24.544 657.087 24.544C655.252 24.544 653.695 25.0773 652.415 26.144C651.178 27.2107 650.41 28.7253 650.111 30.688H663.807ZM710.309 52.512C707.194 52.512 704.421 51.9787 701.989 50.912C699.557 49.8453 697.637 48.3947 696.229 46.56C694.821 44.6827 694.031 42.592 693.861 40.288H704.677C704.805 41.5253 705.381 42.528 706.405 43.296C707.429 44.064 708.687 44.448 710.181 44.448C711.546 44.448 712.591 44.192 713.317 43.68C714.085 43.1253 714.469 42.4213 714.469 41.568C714.469 40.544 713.935 39.7973 712.869 39.328C711.802 38.816 710.074 38.2613 707.685 37.664C705.125 37.0667 702.991 36.448 701.285 35.808C699.578 35.1253 698.106 34.08 696.869 32.672C695.631 31.2213 695.013 29.28 695.013 26.848C695.013 24.8 695.567 22.944 696.677 21.28C697.829 19.5733 699.493 18.2293 701.669 17.248C703.887 16.2667 706.511 15.776 709.541 15.776C714.021 15.776 717.541 16.8853 720.101 19.104C722.703 21.3227 724.197 24.2667 724.581 27.936H714.469C714.298 26.6987 713.743 25.7173 712.805 24.992C711.909 24.2667 710.714 23.904 709.221 23.904C707.941 23.904 706.959 24.16 706.277 24.672C705.594 25.1413 705.253 25.8027 705.253 26.656C705.253 27.68 705.786 28.448 706.853 28.96C707.962 29.472 709.669 29.984 711.973 30.496C714.618 31.1787 716.773 31.8613 718.437 32.544C720.101 33.184 721.551 34.2507 722.789 35.744C724.069 37.1947 724.73 39.1573 724.773 41.632C724.773 43.7227 724.175 45.6 722.981 47.264C721.829 48.8853 720.143 50.1653 717.925 51.104C715.749 52.0427 713.21 52.512 710.309 52.512Z" fill="#F94C35"/>
<path d="M112.04 427.376H91.688L87.784 438H83.048L99.368 393.84H104.424L120.68 438H115.944L112.04 427.376ZM110.696 423.664L101.864 399.472L93.032 423.664H110.696ZM187.257 406.832V428.528C187.257 430.661 187.662 432.133 188.473 432.944C189.283 433.755 190.713 434.16 192.76 434.16H196.857V438H192.057C188.899 438 186.553 437.275 185.017 435.824C183.481 434.331 182.713 431.899 182.713 428.528V406.832H177.849V403.056H182.713V394.288H187.257V403.056H196.857V406.832H187.257ZM226.725 409.264C227.706 407.088 229.2 405.403 231.205 404.208C233.253 403.013 235.749 402.416 238.693 402.416V407.088H237.477C234.234 407.088 231.632 407.963 229.669 409.712C227.706 411.461 226.725 414.384 226.725 418.48V438H222.245V403.056H226.725V409.264ZM265.673 396.464C264.777 396.464 264.009 396.144 263.369 395.504C262.729 394.864 262.409 394.075 262.409 393.136C262.409 392.197 262.729 391.429 263.369 390.832C264.009 390.192 264.777 389.872 265.673 389.872C266.569 389.872 267.337 390.192 267.977 390.832C268.617 391.429 268.937 392.197 268.937 393.136C268.937 394.075 268.617 394.864 267.977 395.504C267.337 396.144 266.569 396.464 265.673 396.464ZM267.913 403.056V438H263.433V403.056H267.913ZM300.474 410.736C301.583 408.389 303.332 406.448 305.722 404.912C308.154 403.333 311.034 402.544 314.362 402.544C317.519 402.544 320.356 403.291 322.874 404.784C325.434 406.235 327.418 408.325 328.826 411.056C330.276 413.744 331.002 416.88 331.002 420.464C331.002 424.048 330.276 427.205 328.826 429.936C327.418 432.667 325.434 434.779 322.874 436.272C320.356 437.765 317.519 438.512 314.362 438.512C311.076 438.512 308.218 437.744 305.786 436.208C303.354 434.629 301.583 432.667 300.474 430.32V454.512H296.058V403.056H300.474V410.736ZM326.458 420.464C326.458 417.563 325.882 415.067 324.729 412.976C323.62 410.843 322.084 409.221 320.122 408.112C318.159 407.003 315.94 406.448 313.466 406.448C311.076 406.448 308.879 407.024 306.874 408.176C304.911 409.328 303.354 410.971 302.202 413.104C301.05 415.237 300.474 417.712 300.474 420.528C300.474 423.344 301.05 425.819 302.202 427.952C303.354 430.085 304.911 431.728 306.874 432.88C308.879 434.032 311.076 434.608 313.466 434.608C315.94 434.608 318.159 434.053 320.122 432.944C322.084 431.792 323.62 430.149 324.729 428.016C325.882 425.84 326.458 423.323 326.458 420.464ZM398.632 406.832V428.528C398.632 430.661 399.037 432.133 399.848 432.944C400.658 433.755 402.088 434.16 404.135 434.16H408.232V438H403.432C400.274 438 397.928 437.275 396.392 435.824C394.856 434.331 394.088 431.899 394.088 428.528V406.832H389.224V403.056H394.088V394.288H398.632V403.056H408.232V406.832H398.632ZM450.26 402.416C452.905 402.416 455.273 402.971 457.364 404.08C459.497 405.189 461.161 406.896 462.356 409.2C463.593 411.461 464.212 414.235 464.212 417.52V438H459.796V418.032C459.796 414.235 458.836 411.333 456.916 409.328C455.039 407.323 452.457 406.32 449.172 406.32C445.801 406.32 443.113 407.387 441.108 409.52C439.103 411.653 438.1 414.789 438.1 418.928V438H433.62V390.64H438.1V409.008C439.209 406.917 440.831 405.296 442.964 404.144C445.14 402.992 447.572 402.416 450.26 402.416ZM496.6 409.264C497.581 407.088 499.075 405.403 501.08 404.208C503.128 403.013 505.624 402.416 508.568 402.416V407.088H507.352C504.109 407.088 501.507 407.963 499.544 409.712C497.581 411.461 496.6 414.384 496.6 418.48V438H492.12V403.056H496.6V409.264ZM548.604 438.512C545.318 438.512 542.353 437.787 539.708 436.336C537.105 434.843 535.036 432.752 533.5 430.064C532.006 427.333 531.26 424.155 531.26 420.528C531.26 416.901 532.028 413.744 533.564 411.056C535.1 408.325 537.19 406.235 539.836 404.784C542.481 403.291 545.446 402.544 548.732 402.544C552.017 402.544 554.982 403.291 557.628 404.784C560.316 406.235 562.406 408.325 563.9 411.056C565.436 413.744 566.204 416.901 566.204 420.528C566.204 424.112 565.436 427.269 563.9 430C562.364 432.731 560.252 434.843 557.564 436.336C554.876 437.787 551.889 438.512 548.604 438.512ZM548.604 434.608C550.908 434.608 553.041 434.096 555.004 433.072C556.966 432.005 558.545 430.427 559.74 428.336C560.977 426.203 561.596 423.6 561.596 420.528C561.596 417.456 560.998 414.875 559.804 412.784C558.609 410.651 557.03 409.072 555.068 408.048C553.105 406.981 550.972 406.448 548.668 406.448C546.364 406.448 544.23 406.981 542.268 408.048C540.305 409.072 538.726 410.651 537.532 412.784C536.38 414.875 535.804 417.456 535.804 420.528C535.804 423.6 536.38 426.203 537.532 428.336C538.726 430.427 540.284 432.005 542.204 433.072C544.166 434.096 546.3 434.608 548.604 434.608ZM622.642 403.056V438H618.162V431.856C617.138 434.032 615.559 435.696 613.426 436.848C611.293 438 608.903 438.576 606.258 438.576C602.077 438.576 598.663 437.296 596.018 434.736C593.373 432.133 592.05 428.379 592.05 423.472V403.056H596.466V422.96C596.466 426.757 597.405 429.659 599.282 431.664C601.202 433.669 603.805 434.672 607.09 434.672C610.461 434.672 613.149 433.605 615.154 431.472C617.159 429.339 618.162 426.203 618.162 422.064V403.056H622.642ZM665.526 402.544C668.811 402.544 671.67 403.312 674.102 404.848C676.534 406.384 678.283 408.325 679.35 410.672V403.056H683.83V438.896C683.83 442.096 683.126 444.933 681.718 447.408C680.353 449.883 678.433 451.781 675.958 453.104C673.483 454.469 670.667 455.152 667.51 455.152C663.03 455.152 659.297 454.085 656.31 451.952C653.366 449.819 651.531 446.917 650.806 443.248H655.222C655.99 445.68 657.441 447.621 659.574 449.072C661.75 450.523 664.395 451.248 667.51 451.248C669.771 451.248 671.798 450.757 673.59 449.776C675.382 448.837 676.79 447.429 677.814 445.552C678.838 443.675 679.35 441.456 679.35 438.896V430.256C678.241 432.645 676.47 434.629 674.038 436.208C671.649 437.744 668.811 438.512 665.526 438.512C662.326 438.512 659.446 437.765 656.886 436.272C654.369 434.779 652.385 432.667 650.934 429.936C649.526 427.205 648.822 424.048 648.822 420.464C648.822 416.88 649.526 413.744 650.934 411.056C652.385 408.325 654.369 406.235 656.886 404.784C659.446 403.291 662.326 402.544 665.526 402.544ZM679.35 420.528C679.35 417.712 678.774 415.237 677.622 413.104C676.47 410.971 674.891 409.328 672.886 408.176C670.923 407.024 668.747 406.448 666.358 406.448C663.883 406.448 661.665 407.003 659.702 408.112C657.739 409.221 656.182 410.843 655.03 412.976C653.921 415.067 653.366 417.563 653.366 420.464C653.366 423.323 653.921 425.84 655.03 428.016C656.182 430.149 657.739 431.792 659.702 432.944C661.665 434.053 663.883 434.608 666.358 434.608C668.747 434.608 670.923 434.032 672.886 432.88C674.891 431.728 676.47 430.085 677.622 427.952C678.774 425.819 679.35 423.344 679.35 420.528ZM728.698 402.416C731.343 402.416 733.711 402.971 735.802 404.08C737.935 405.189 739.599 406.896 740.794 409.2C742.031 411.461 742.65 414.235 742.65 417.52V438H738.234V418.032C738.234 414.235 737.274 411.333 735.354 409.328C733.476 407.323 730.895 406.32 727.61 406.32C724.239 406.32 721.551 407.387 719.546 409.52C717.54 411.653 716.538 414.789 716.538 418.928V438H712.058V390.64H716.538V409.008C717.647 406.917 719.268 405.296 721.402 404.144C723.578 402.992 726.01 402.416 728.698 402.416ZM821.416 438.512C818.131 438.512 815.165 437.787 812.52 436.336C809.917 434.843 807.848 432.752 806.312 430.064C804.819 427.333 804.072 424.155 804.072 420.528C804.072 416.901 804.84 413.744 806.376 411.056C807.912 408.325 810.003 406.235 812.648 404.784C815.293 403.291 818.259 402.544 821.544 402.544C824.829 402.544 827.795 403.291 830.44 404.784C833.128 406.235 835.219 408.325 836.712 411.056C838.248 413.744 839.016 416.901 839.016 420.528C839.016 424.112 838.248 427.269 836.712 430C835.176 432.731 833.064 434.843 830.376 436.336C827.688 437.787 824.701 438.512 821.416 438.512ZM821.416 434.608C823.72 434.608 825.853 434.096 827.816 433.072C829.779 432.005 831.357 430.427 832.552 428.336C833.789 426.203 834.408 423.6 834.408 420.528C834.408 417.456 833.811 414.875 832.616 412.784C831.421 410.651 829.843 409.072 827.88 408.048C825.917 406.981 823.784 406.448 821.48 406.448C819.176 406.448 817.043 406.981 815.08 408.048C813.117 409.072 811.539 410.651 810.344 412.784C809.192 414.875 808.616 417.456 808.616 420.528C808.616 423.6 809.192 426.203 810.344 428.336C811.539 430.427 813.096 432.005 815.016 433.072C816.979 434.096 819.112 434.608 821.416 434.608ZM869.663 390.64V438H865.183V390.64H869.663ZM895.76 420.464C895.76 416.88 896.485 413.744 897.936 411.056C899.386 408.325 901.37 406.235 903.888 404.784C906.448 403.291 909.328 402.544 912.528 402.544C915.6 402.544 918.373 403.291 920.848 404.784C923.322 406.277 925.136 408.219 926.288 410.608V390.64H930.768V438H926.288V430.192C925.221 432.624 923.472 434.629 921.04 436.208C918.608 437.744 915.749 438.512 912.464 438.512C909.264 438.512 906.384 437.765 903.824 436.272C901.306 434.779 899.322 432.667 897.872 429.936C896.464 427.205 895.76 424.048 895.76 420.464ZM926.288 420.528C926.288 417.712 925.712 415.237 924.56 413.104C923.408 410.971 921.829 409.328 919.824 408.176C917.861 407.024 915.685 406.448 913.296 406.448C910.821 406.448 908.602 407.003 906.64 408.112C904.677 409.221 903.12 410.843 901.968 412.976C900.858 415.067 900.304 417.563 900.304 420.464C900.304 423.323 900.858 425.84 901.968 428.016C903.12 430.149 904.677 431.792 906.64 432.944C908.602 434.053 910.821 434.608 913.296 434.608C915.685 434.608 917.861 434.032 919.824 432.88C921.829 431.728 923.408 430.085 924.56 427.952C925.712 425.819 926.288 423.344 926.288 420.528ZM1134.76 420.464C1134.76 416.88 1135.46 413.744 1136.87 411.056C1138.32 408.325 1140.31 406.235 1142.82 404.784C1145.38 403.291 1148.26 402.544 1151.46 402.544C1154.79 402.544 1157.65 403.312 1160.04 404.848C1162.47 406.384 1164.22 408.347 1165.29 410.736V403.056H1169.77V438H1165.29V430.256C1164.18 432.645 1162.41 434.629 1159.98 436.208C1157.59 437.744 1154.73 438.512 1151.4 438.512C1148.24 438.512 1145.38 437.765 1142.82 436.272C1140.31 434.779 1138.32 432.667 1136.87 429.936C1135.46 427.205 1134.76 424.048 1134.76 420.464ZM1165.29 420.528C1165.29 417.712 1164.71 415.237 1163.56 413.104C1162.41 410.971 1160.83 409.328 1158.82 408.176C1156.86 407.024 1154.68 406.448 1152.3 406.448C1149.82 406.448 1147.6 407.003 1145.64 408.112C1143.68 409.221 1142.12 410.843 1140.97 412.976C1139.86 415.067 1139.3 417.563 1139.3 420.464C1139.3 423.323 1139.86 425.84 1140.97 428.016C1142.12 430.149 1143.68 431.792 1145.64 432.944C1147.6 434.053 1149.82 434.608 1152.3 434.608C1154.68 434.608 1156.86 434.032 1158.82 432.88C1160.83 431.728 1162.41 430.085 1163.56 427.952C1164.71 425.819 1165.29 423.344 1165.29 420.528ZM1214.38 402.416C1218.56 402.416 1221.97 403.717 1224.62 406.32C1227.26 408.88 1228.59 412.613 1228.59 417.52V438H1224.17V418.032C1224.17 414.235 1223.21 411.333 1221.29 409.328C1219.41 407.323 1216.83 406.32 1213.55 406.32C1210.18 406.32 1207.49 407.387 1205.48 409.52C1203.48 411.653 1202.48 414.789 1202.48 418.928V438H1198V403.056H1202.48V409.008C1203.58 406.875 1205.18 405.253 1207.28 404.144C1209.37 402.992 1211.73 402.416 1214.38 402.416ZM1254.45 420.464C1254.45 416.88 1255.17 413.744 1256.62 411.056C1258.07 408.325 1260.06 406.235 1262.58 404.784C1265.14 403.291 1268.02 402.544 1271.22 402.544C1274.29 402.544 1277.06 403.291 1279.54 404.784C1282.01 406.277 1283.82 408.219 1284.98 410.608V390.64H1289.46V438H1284.98V430.192C1283.91 432.624 1282.16 434.629 1279.73 436.208C1277.3 437.744 1274.44 438.512 1271.15 438.512C1267.95 438.512 1265.07 437.765 1262.51 436.272C1259.99 434.779 1258.01 432.667 1256.56 429.936C1255.15 427.205 1254.45 424.048 1254.45 420.464ZM1284.98 420.528C1284.98 417.712 1284.4 415.237 1283.25 413.104C1282.1 410.971 1280.52 409.328 1278.51 408.176C1276.55 407.024 1274.37 406.448 1271.98 406.448C1269.51 406.448 1267.29 407.003 1265.33 408.112C1263.36 409.221 1261.81 410.843 1260.66 412.976C1259.55 415.067 1258.99 417.563 1258.99 420.464C1258.99 423.323 1259.55 425.84 1260.66 428.016C1261.81 430.149 1263.36 431.792 1265.33 432.944C1267.29 434.053 1269.51 434.608 1271.98 434.608C1274.37 434.608 1276.55 434.032 1278.51 432.88C1280.52 431.728 1282.1 430.085 1283.25 427.952C1284.4 425.819 1284.98 423.344 1284.98 420.528ZM1369.63 402.416C1373.81 402.416 1377.22 403.717 1379.87 406.32C1382.51 408.88 1383.84 412.613 1383.84 417.52V438H1379.42V418.032C1379.42 414.235 1378.46 411.333 1376.54 409.328C1374.66 407.323 1372.08 406.32 1368.8 406.32C1365.43 406.32 1362.74 407.387 1360.73 409.52C1358.73 411.653 1357.73 414.789 1357.73 418.928V438H1353.25V403.056H1357.73V409.008C1358.83 406.875 1360.43 405.253 1362.53 404.144C1364.62 402.992 1366.98 402.416 1369.63 402.416ZM1443.36 418.736C1443.36 420.272 1443.32 421.445 1443.23 422.256H1414.24C1414.37 424.901 1415.01 427.163 1416.16 429.04C1417.31 430.917 1418.83 432.347 1420.71 433.328C1422.58 434.267 1424.63 434.736 1426.85 434.736C1429.75 434.736 1432.18 434.032 1434.15 432.624C1436.15 431.216 1437.47 429.317 1438.11 426.928H1442.85C1442 430.341 1440.16 433.136 1437.35 435.312C1434.57 437.445 1431.07 438.512 1426.85 438.512C1423.56 438.512 1420.62 437.787 1418.02 436.336C1415.41 434.843 1413.37 432.752 1411.87 430.064C1410.42 427.333 1409.7 424.155 1409.7 420.528C1409.7 416.901 1410.42 413.723 1411.87 410.992C1413.32 408.261 1415.35 406.171 1417.95 404.72C1420.56 403.269 1423.52 402.544 1426.85 402.544C1430.18 402.544 1433.08 403.269 1435.55 404.72C1438.07 406.171 1439.99 408.133 1441.31 410.608C1442.68 413.04 1443.36 415.749 1443.36 418.736ZM1438.82 418.608C1438.86 416.005 1438.33 413.787 1437.22 411.952C1436.15 410.117 1434.68 408.731 1432.8 407.792C1430.92 406.853 1428.88 406.384 1426.66 406.384C1423.33 406.384 1420.49 407.451 1418.15 409.584C1415.8 411.717 1414.5 414.725 1414.24 418.608H1438.82ZM1515.64 403.056L1504.69 438H1500.21L1490.55 408.688L1480.89 438H1476.34L1465.4 403.056H1469.94L1478.65 433.456L1488.44 403.056H1492.92L1502.58 433.52L1511.22 403.056H1515.64Z" fill="#F94C35"/>
<path d="M266.618 278.7C268.452 270.267 273.402 266.05 281.468 266.05H289.168C299.068 266.05 303.652 270.817 302.918 280.35L300.168 345.8C299.802 354.6 295.218 359 286.418 359H35.6184C26.4517 359 21.8684 354.967 21.8684 346.9C21.8684 338.833 26.2684 334.433 35.0684 333.7L54.8684 331.5C63.3017 330.4 67.7017 325.633 68.0684 317.2C68.0684 308.4 68.0684 299.6 68.0684 290.8C68.435 281.633 68.6184 272.467 68.6184 263.3V106C68.6184 96.8333 68.435 87.85 68.0684 79.05C68.0684 69.8833 68.0684 60.7166 68.0684 51.55C67.335 43.1167 62.935 38.35 54.8684 37.25L35.0684 35.05C26.2684 33.95 21.8684 29.55 21.8684 21.85C21.8684 13.7833 26.4517 9.74997 35.6184 9.74997H275.968C284.768 9.74997 289.352 14.15 289.718 22.95L292.468 88.4C293.202 97.9333 288.618 102.7 278.718 102.7H271.018C262.585 102.7 257.635 98.6667 256.168 90.6L248.468 49.9C247.002 41.8333 242.052 37.8 233.618 37.8H133.518C133.152 48.4333 132.785 59.0667 132.418 69.7C132.418 79.9667 132.418 90.4167 132.418 101.05V165.95H192.918C201.352 165.95 206.118 161.733 207.218 153.3L210.518 130.2C211.618 121.767 216.385 117.55 224.818 117.55C233.985 117.55 238.568 122.133 238.568 131.3V227C238.568 236.167 234.168 240.75 225.368 240.75C216.568 240.75 211.618 236.533 210.518 228.1L207.768 205.55C206.668 197.117 201.718 192.9 192.918 192.9H132.418V264.4C132.418 275.767 132.418 287.133 132.418 298.5C132.785 309.5 133.152 320.5 133.518 331.5H244.618C252.685 331.5 257.635 327.283 259.468 318.85L266.618 278.7ZM546.672 318.85C546.672 327.283 550.706 332.233 558.772 333.7L567.572 335.35C575.639 337.183 579.672 341.583 579.672 348.55C579.672 355.517 575.272 359.367 566.472 360.1L507.622 363.95H506.522C498.456 363.95 493.872 359.733 492.772 351.3L489.472 319.4C461.972 351.3 431.539 367.25 398.172 367.25C387.539 367.25 377.822 365.417 369.022 361.75C360.222 358.45 352.706 352.95 346.472 345.25C340.239 337.917 335.472 328.383 332.172 316.65C328.872 304.55 327.406 289.7 327.772 272.1L328.872 150.55C328.872 142.483 324.656 137.533 316.222 135.7L308.522 134.05C300.456 132.583 296.422 128.367 296.422 121.4C296.422 114.8 300.822 111.133 309.622 110.4L373.422 104.9C374.889 104.9 376.172 104.9 377.272 104.9C378.372 104.533 379.289 104.35 380.022 104.35C382.589 104.35 384.606 104.717 386.072 105.45C387.539 106.917 388.272 111.133 388.272 118.1L386.072 183V264.4C386.072 287.5 389.189 303.633 395.422 312.8C402.022 321.967 411.189 326.55 422.922 326.55C433.556 326.55 444.372 323.617 455.372 317.75C466.739 311.517 477.556 303.45 487.822 293.55L489.472 150.55C489.472 142.483 485.256 137.533 476.822 135.7L469.122 134.05C461.056 132.583 457.022 128.55 457.022 121.95C457.022 115.35 461.422 111.683 470.222 110.95L532.922 104.9C534.389 104.9 535.672 104.9 536.772 104.9C537.872 104.533 538.789 104.35 539.522 104.35C542.089 104.35 544.106 104.717 545.572 105.45C546.306 106.183 546.856 107.467 547.222 109.3C547.956 111.133 548.322 114.067 548.322 118.1L546.672 183V318.85ZM644.929 101.05C646.396 102.15 647.496 103.617 648.229 105.45C648.963 107.283 649.513 110.217 649.879 114.25L653.729 159.9C663.629 140.467 674.996 125.433 687.829 114.8C701.029 103.8 714.413 98.3 727.979 98.3C735.313 98.3 742.829 100.5 750.529 104.9C758.229 109.3 763.179 116.817 765.379 127.45C765.379 137.717 762.263 145.967 756.029 152.2C749.796 158.067 741.363 161 730.729 161C718.263 161 706.529 155.317 695.529 143.95L692.779 141.2C684.713 148.533 677.379 156.783 670.779 165.95C664.546 174.75 659.046 185.383 654.279 197.85V317.75C654.646 326.183 658.863 331.133 666.929 332.6L684.529 335.9C692.963 337.733 697.179 341.95 697.179 348.55C697.179 355.517 692.596 359 683.429 359H573.429C564.263 359 559.679 355.517 559.679 348.55C559.679 341.95 563.896 337.733 572.329 335.9L583.329 333.7C591.396 331.867 595.613 327.1 595.979 319.4V219.85C595.979 212.517 595.979 205.917 595.979 200.05C595.979 194.183 595.796 189.05 595.429 184.65C595.063 181.717 594.879 178.967 594.879 176.4C594.879 173.833 594.879 171.083 594.879 168.15C594.146 159.717 589.746 154.95 581.679 153.85L568.479 152.2C560.046 151.1 555.829 147.25 555.829 140.65C555.829 134.417 559.496 129.833 566.829 126.9L630.629 102.15C633.929 100.683 637.046 99.95 639.979 99.95C642.179 99.95 643.829 100.317 644.929 101.05ZM880.283 98.3C899.349 98.3 916.766 101.967 932.533 109.3C948.299 116.267 961.683 125.983 972.683 138.45C984.049 150.55 992.666 164.85 998.533 181.35C1004.77 197.483 1007.88 214.9 1007.88 233.6C1007.88 252.667 1004.77 270.45 998.533 286.95C992.666 303.083 984.233 317.2 973.233 329.3C962.233 341.033 948.849 350.383 933.083 357.35C917.316 363.95 899.716 367.25 880.283 367.25C860.849 367.25 843.249 363.95 827.483 357.35C811.716 350.383 798.333 341.033 787.333 329.3C776.333 317.2 767.716 303.083 761.483 286.95C755.616 270.45 752.683 252.667 752.683 233.6C752.683 214.9 755.616 197.3 761.483 180.8C767.716 164.3 776.333 150 787.333 137.9C798.699 125.8 812.083 116.267 827.483 109.3C843.249 101.967 860.849 98.3 880.283 98.3ZM880.283 123.05C838.116 123.05 817.033 159.717 817.033 233.05C817.033 305.65 838.116 341.95 880.283 341.95C922.449 341.95 943.533 305.65 943.533 233.05C943.533 159.717 922.449 123.05 880.283 123.05ZM1061.36 101.05C1064.29 102.883 1065.94 107.1 1066.31 113.7L1067.96 135.15C1079.69 122.683 1091.79 113.517 1104.26 107.65C1117.09 101.417 1131.39 98.3 1147.16 98.3C1165.49 98.3 1181.07 102.333 1193.91 110.4C1206.74 118.1 1217.19 128.367 1225.26 141.2C1233.69 153.667 1239.74 167.783 1243.41 183.55C1247.44 199.317 1249.46 215.083 1249.46 230.85C1249.46 247.717 1247.26 264.4 1242.86 280.9C1238.46 297.033 1231.67 311.517 1222.51 324.35C1213.34 337.183 1201.79 347.633 1187.86 355.7C1173.92 363.4 1157.61 367.25 1138.91 367.25C1111.77 367.25 1088.67 357.167 1069.61 337V366.7C1069.61 377.333 1069.61 388.883 1069.61 401.35C1069.97 414.183 1070.34 426.467 1070.71 438.2C1070.71 446.633 1074.74 451.583 1082.81 453.05L1102.06 456.9C1110.12 458.367 1114.16 462.583 1114.16 469.55C1114.16 476.517 1109.57 480 1100.41 480H989.306C980.139 480 975.556 476.517 975.556 469.55C975.556 462.583 979.589 458.183 987.656 456.35L1000.31 453.6C1008.37 451.767 1012.41 446.817 1012.41 438.75C1012.77 427.017 1012.96 414.733 1012.96 401.9C1013.32 389.433 1013.51 377.7 1013.51 366.7V219.85C1013.51 212.517 1013.51 205.917 1013.51 200.05C1013.51 194.183 1013.32 189.05 1012.96 184.65C1012.59 181.717 1012.41 178.967 1012.41 176.4C1012.41 173.833 1012.41 171.083 1012.41 168.15C1011.67 159.717 1007.27 154.95 999.206 153.85L986.006 152.2C977.573 151.1 973.356 147.25 973.356 140.65C973.356 134.417 977.023 129.833 984.356 126.9L1047.61 102.15C1050.91 100.683 1054.02 99.95 1056.96 99.95C1058.42 99.95 1059.89 100.317 1061.36 101.05ZM1071.26 156.6V310.05C1088.86 324.35 1105.91 331.5 1122.41 331.5C1140.74 331.5 1155.96 323.617 1168.06 307.85C1180.52 292.083 1186.76 267.517 1186.76 234.15C1186.76 200.417 1181.26 175.3 1170.26 158.8C1159.62 141.933 1145.32 133.5 1127.36 133.5C1110.86 133.5 1092.16 141.2 1071.26 156.6ZM1460.85 321.6C1461.59 320.867 1463.97 322.333 1468 326C1472.4 330.4 1472.22 335.9 1467.45 342.5C1461.59 350.933 1455.17 356.617 1448.2 359.55C1441.24 362.85 1432.99 364.5 1423.45 364.5C1408.42 364.5 1396.5 361.383 1387.7 355.15C1379.27 348.55 1373.4 339.933 1370.1 329.3C1358.37 341.033 1347 350.383 1336 357.35C1325 363.95 1310.89 367.25 1293.65 367.25C1273.49 367.25 1256.44 361.75 1242.5 350.75C1228.94 339.75 1222.15 323.617 1222.15 302.35C1222.15 288.05 1226 275.767 1233.7 265.5C1241.77 255.233 1251.67 246.433 1263.4 239.1C1275.5 231.767 1288.34 225.717 1301.9 220.95C1315.47 216.183 1328.12 212.15 1339.85 208.85L1367.9 200.6V186.3C1367.9 162.1 1364.24 145.6 1356.9 136.8C1349.94 127.633 1337.84 123.05 1320.6 123.05C1318.77 123.05 1316.94 123.05 1315.1 123.05C1313.64 123.05 1311.99 123.233 1310.15 123.6C1302.82 123.967 1298.24 128.367 1296.4 136.8L1291.45 159.35C1287.05 181.35 1276.05 192.35 1258.45 192.35C1251.12 192.35 1244.89 190.15 1239.75 185.75C1234.62 180.983 1231.69 174.933 1230.95 167.6C1234.25 147.067 1245.25 130.383 1263.95 117.55C1283.02 104.717 1307.95 98.3 1338.75 98.3C1369.19 98.3 1391.37 105.633 1405.3 120.3C1419.24 134.967 1426.2 160.817 1426.2 197.85V308.4C1426.2 324.9 1431.34 333.15 1441.6 333.15C1446 333.15 1450.04 331.867 1453.7 329.3C1456.27 327.467 1457.92 326 1458.65 324.9C1459.39 323.433 1460.12 322.333 1460.85 321.6ZM1367.9 307.85V222.6C1359.1 224.8 1349.57 227.55 1339.3 230.85C1329.4 234.15 1320.05 238.367 1311.25 243.5C1302.45 248.633 1295.12 255.05 1289.25 262.75C1283.39 270.083 1280.45 279.067 1280.45 289.7C1280.45 302.167 1284.12 311.883 1291.45 318.85C1299.15 325.817 1309.24 329.3 1321.7 329.3C1329.04 329.3 1335.82 327.833 1342.05 324.9C1348.65 321.967 1357.27 316.283 1367.9 307.85ZM1484.54 367.25C1472.81 367.25 1462.72 363.033 1454.29 354.6C1445.86 346.167 1441.64 336.083 1441.64 324.35C1441.64 312.617 1445.86 302.533 1454.29 294.1C1462.72 285.667 1472.81 281.45 1484.54 281.45C1496.27 281.45 1506.36 285.667 1514.79 294.1C1523.22 302.533 1527.44 312.617 1527.44 324.35C1527.44 336.083 1523.22 346.167 1514.79 354.6C1506.36 363.033 1496.27 367.25 1484.54 367.25Z" fill="black"/>
</svg>
