<svg width="687" height="270" viewBox="0 0 687 270" fill="none" xmlns="http://www.w3.org/2000/svg">
<path d="M657.55 74.8519V113.88H683.016V150.159H657.55V192.485H686.353V230.139H638.534V37.1982H686.353V74.8519H657.55Z" fill="white"/>
<path d="M499.63 133.394C499.63 114.338 501.299 97.3896 504.635 82.5481C507.971 67.5232 512.605 55.8882 518.536 47.6428C524.541 39.2143 531.324 35 538.886 35C548.154 35 556.086 41.0466 562.685 53.1397C569.283 65.2329 573.694 81.7235 575.918 102.612H555.011C553.455 94.5496 551.23 88.4114 548.339 84.1971C545.522 79.9828 542.297 77.8757 538.664 77.8757C532.807 77.8757 528.062 82.9145 524.43 92.9921C520.797 103.07 518.98 116.537 518.98 133.394C518.98 150.251 520.797 163.719 524.43 173.796C528.062 183.874 532.807 188.913 538.664 188.913C542.297 188.913 545.522 186.806 548.339 182.591C551.23 178.377 553.455 172.239 555.011 164.177H575.918C573.694 185.065 569.283 201.556 562.685 213.649C556.086 225.559 548.154 231.514 538.886 231.514C531.324 231.514 524.541 227.391 518.536 219.146C512.605 210.717 507.971 199.082 504.635 184.24C501.299 169.399 499.63 152.45 499.63 133.394Z" fill="white"/>
<path d="M438.102 230.139H419.085L387.28 111.131V230.139H368.264V37.1982H387.28L419.085 156.755V37.1982H438.102V230.139Z" fill="white"/>
<path d="M283.898 196.058H254.762L250.091 230.139H230.185L258.432 37.1982H280.451L308.697 230.139H288.569L283.898 196.058ZM279.005 159.779L269.33 89.1438L259.766 159.779H279.005Z" fill="white"/>
<path d="M151.598 230.139L135.362 157.305H130.802V230.139H111.786V37.1982H143.702C149.856 37.1982 155.082 39.8551 159.382 45.1687C163.757 50.4824 167.019 57.8115 169.169 67.1562C171.319 76.3177 172.394 86.5786 172.394 97.9388C172.394 110.765 170.911 122.217 167.945 132.294C165.054 142.372 160.754 149.518 155.045 153.732L173.061 230.139H151.598ZM130.802 124.049H142.59C146.075 124.049 148.669 121.942 150.375 117.728C152.154 113.513 153.044 107.558 153.044 99.8627C153.044 92.5335 152.154 86.7618 150.375 82.5475C148.669 78.3333 146.075 76.2261 142.59 76.2261H130.802V124.049Z" fill="white"/>
<path d="M50.8215 37.1982V74.8519H19.0164V115.529H42.8146V152.083H19.0164V230.139H0V37.1982H50.8215Z" fill="white"/>
<path d="M12.576 18.288C13.6 18.528 14.392 19.024 14.952 19.776C15.528 20.512 15.816 21.368 15.816 22.344C15.816 23.832 15.32 24.984 14.328 25.8C13.352 26.6 11.944 27 10.104 27H1.2V10.008H9.864C11.592 10.008 12.952 10.384 13.944 11.136C14.936 11.888 15.432 12.984 15.432 14.424C15.432 15.416 15.168 16.256 14.64 16.944C14.128 17.616 13.44 18.064 12.576 18.288ZM6.528 16.632H8.592C9.072 16.632 9.424 16.536 9.648 16.344C9.888 16.152 10.008 15.856 10.008 15.456C10.008 15.04 9.888 14.736 9.648 14.544C9.424 14.336 9.072 14.232 8.592 14.232H6.528V16.632ZM8.952 22.728C9.432 22.728 9.784 22.64 10.008 22.464C10.248 22.272 10.368 21.968 10.368 21.552C10.368 20.736 9.896 20.328 8.952 20.328H6.528V22.728H8.952ZM32.9343 15.96C33.4783 15.176 34.1423 14.552 34.9263 14.088C35.7103 13.608 36.5263 13.368 37.3743 13.368V19.056H35.8623C34.8543 19.056 34.1103 19.232 33.6303 19.584C33.1663 19.936 32.9343 20.56 32.9343 21.456V27H27.6063V13.464H32.9343V15.96ZM48.0894 20.232C48.0894 18.808 48.3294 17.576 48.8094 16.536C49.3054 15.48 49.9774 14.68 50.8254 14.136C51.6734 13.576 52.6254 13.296 53.6814 13.296C54.5614 13.296 55.3214 13.48 55.9614 13.848C56.6014 14.2 57.0894 14.688 57.4254 15.312V13.464H62.7294V27H57.4254V25.152C57.0894 25.776 56.6014 26.272 55.9614 26.64C55.3214 26.992 54.5614 27.168 53.6814 27.168C52.6254 27.168 51.6734 26.896 50.8254 26.352C49.9774 25.792 49.3054 24.992 48.8094 23.952C48.3294 22.896 48.0894 21.656 48.0894 20.232ZM57.4254 20.232C57.4254 19.512 57.2414 18.952 56.8734 18.552C56.5054 18.152 56.0334 17.952 55.4574 17.952C54.8814 17.952 54.4094 18.152 54.0414 18.552C53.6734 18.952 53.4894 19.512 53.4894 20.232C53.4894 20.952 53.6734 21.512 54.0414 21.912C54.4094 22.312 54.8814 22.512 55.4574 22.512C56.0334 22.512 56.5054 22.312 56.8734 21.912C57.2414 21.512 57.4254 20.952 57.4254 20.232ZM84.6019 13.368C86.1539 13.368 87.3619 13.888 88.2259 14.928C89.1059 15.968 89.5459 17.376 89.5459 19.152V27H84.2419V19.824C84.2419 19.184 84.0659 18.68 83.7139 18.312C83.3779 17.928 82.9219 17.736 82.3459 17.736C81.7539 17.736 81.2899 17.928 80.9539 18.312C80.6179 18.68 80.4499 19.184 80.4499 19.824V27H75.1219V13.464H80.4499V15.528C80.8659 14.888 81.4179 14.368 82.1059 13.968C82.8099 13.568 83.6419 13.368 84.6019 13.368ZM101.136 20.232C101.136 18.808 101.376 17.576 101.856 16.536C102.352 15.48 103.024 14.68 103.872 14.136C104.72 13.576 105.672 13.296 106.728 13.296C107.608 13.296 108.36 13.48 108.984 13.848C109.624 14.2 110.112 14.688 110.448 15.312V9.24H115.776V27H110.448V25.152C110.112 25.776 109.624 26.272 108.984 26.64C108.36 26.992 107.608 27.168 106.728 27.168C105.672 27.168 104.72 26.896 103.872 26.352C103.024 25.792 102.352 24.992 101.856 23.952C101.376 22.896 101.136 21.656 101.136 20.232ZM110.472 20.232C110.472 19.512 110.288 18.952 109.92 18.552C109.552 18.152 109.08 17.952 108.504 17.952C107.928 17.952 107.456 18.152 107.088 18.552C106.72 18.952 106.536 19.512 106.536 20.232C106.536 20.952 106.72 21.512 107.088 21.912C107.456 22.312 107.928 22.512 108.504 22.512C109.08 22.512 109.552 22.312 109.92 21.912C110.288 21.512 110.472 20.952 110.472 20.232ZM130.809 12.384C129.881 12.384 129.137 12.136 128.577 11.64C128.017 11.144 127.737 10.52 127.737 9.768C127.737 9 128.017 8.368 128.577 7.872C129.137 7.36 129.881 7.104 130.809 7.104C131.721 7.104 132.457 7.36 133.017 7.872C133.577 8.368 133.857 9 133.857 9.768C133.857 10.52 133.577 11.144 133.017 11.64C132.457 12.136 131.721 12.384 130.809 12.384ZM133.497 27.936C133.497 31.632 131.641 33.48 127.929 33.48H126.153V28.944H127.185C127.537 28.944 127.785 28.872 127.929 28.728C128.089 28.584 128.169 28.352 128.169 28.032V13.464H133.497V27.936ZM158.96 20.112C158.96 20.48 158.936 20.832 158.888 21.168H150.32C150.4 22.336 150.888 22.92 151.784 22.92C152.36 22.92 152.776 22.656 153.032 22.128H158.672C158.48 23.088 158.072 23.952 157.448 24.72C156.84 25.472 156.064 26.072 155.12 26.52C154.192 26.952 153.168 27.168 152.048 27.168C150.704 27.168 149.504 26.888 148.448 26.328C147.408 25.768 146.592 24.968 146 23.928C145.424 22.872 145.136 21.64 145.136 20.232C145.136 18.824 145.424 17.6 146 16.56C146.592 15.504 147.408 14.696 148.448 14.136C149.504 13.576 150.704 13.296 152.048 13.296C153.392 13.296 154.584 13.576 155.624 14.136C156.68 14.68 157.496 15.464 158.072 16.488C158.664 17.512 158.96 18.72 158.96 20.112ZM153.56 18.84C153.56 18.392 153.416 18.056 153.128 17.832C152.84 17.592 152.48 17.472 152.048 17.472C151.104 17.472 150.552 17.928 150.392 18.84H153.56ZM176.669 27.168C175.389 27.168 174.253 26.96 173.261 26.544C172.285 26.128 171.509 25.552 170.933 24.816C170.357 24.08 170.029 23.248 169.949 22.32H175.061C175.125 22.72 175.293 23.016 175.565 23.208C175.853 23.4 176.213 23.496 176.645 23.496C176.917 23.496 177.133 23.44 177.293 23.328C177.453 23.2 177.533 23.048 177.533 22.872C177.533 22.568 177.365 22.352 177.029 22.224C176.693 22.096 176.125 21.952 175.325 21.792C174.349 21.6 173.541 21.392 172.901 21.168C172.277 20.944 171.725 20.56 171.245 20.016C170.781 19.472 170.549 18.72 170.549 17.76C170.549 16.928 170.765 16.176 171.197 15.504C171.645 14.816 172.301 14.28 173.165 13.896C174.029 13.496 175.077 13.296 176.309 13.296C178.133 13.296 179.557 13.744 180.581 14.64C181.621 15.536 182.245 16.704 182.453 18.144H177.725C177.645 17.776 177.477 17.496 177.221 17.304C176.965 17.096 176.621 16.992 176.189 16.992C175.917 16.992 175.709 17.048 175.565 17.16C175.421 17.256 175.349 17.408 175.349 17.616C175.349 17.888 175.517 18.096 175.853 18.24C176.189 18.368 176.725 18.504 177.461 18.648C178.437 18.84 179.261 19.056 179.933 19.296C180.605 19.536 181.189 19.952 181.685 20.544C182.181 21.12 182.429 21.92 182.429 22.944C182.429 23.744 182.197 24.464 181.733 25.104C181.269 25.744 180.597 26.248 179.717 26.616C178.853 26.984 177.837 27.168 176.669 27.168Z" fill="#F9C435"/>
<path d="M9.16 259.04H17.92L16.84 265H0.2L5.2 236.8H13.04L9.16 259.04ZM44.5684 253.76C44.9951 251.44 45.7818 249.413 46.9284 247.68C48.0751 245.947 49.4484 244.613 51.0484 243.68C52.6751 242.747 54.3818 242.28 56.1684 242.28C57.7151 242.28 58.9951 242.587 60.0084 243.2C61.0218 243.813 61.7284 244.64 62.1284 245.68L62.6884 242.56H70.5284L66.5684 265H58.7284L59.2884 261.88C58.5151 262.92 57.5018 263.747 56.2484 264.36C54.9951 264.973 53.6084 265.28 52.0884 265.28C49.7418 265.28 47.8618 264.507 46.4484 262.96C45.0351 261.387 44.3284 259.253 44.3284 256.56C44.3284 255.68 44.4084 254.747 44.5684 253.76ZM60.7284 253.76C60.8084 253.36 60.8484 252.987 60.8484 252.64C60.8484 251.52 60.5284 250.653 59.8884 250.04C59.2751 249.427 58.4751 249.12 57.4884 249.12C56.3151 249.12 55.2618 249.533 54.3284 250.36C53.3951 251.16 52.8084 252.293 52.5684 253.76C52.4884 254.16 52.4484 254.547 52.4484 254.92C52.4484 256.04 52.7551 256.907 53.3684 257.52C54.0084 258.133 54.8218 258.44 55.8084 258.44C56.9818 258.44 58.0351 258.027 58.9684 257.2C59.9018 256.373 60.4884 255.227 60.7284 253.76ZM151.203 236.8L150.123 243.04H138.843L137.963 248H146.243L145.203 253.96H136.923L134.963 265H127.083L132.083 236.8H151.203ZM184.625 246.64C185.718 245.333 186.958 244.293 188.345 243.52C189.731 242.747 191.145 242.36 192.585 242.36L191.145 250.72H188.945C187.291 250.72 185.998 251.027 185.065 251.64C184.131 252.253 183.505 253.32 183.185 254.84L181.385 265H173.505L177.505 242.56H185.345L184.625 246.64ZM216.115 253.76C216.542 251.44 217.329 249.413 218.475 247.68C219.622 245.947 220.995 244.613 222.595 243.68C224.222 242.747 225.929 242.28 227.715 242.28C229.262 242.28 230.542 242.587 231.555 243.2C232.569 243.813 233.275 244.64 233.675 245.68L234.235 242.56H242.075L238.115 265H230.275L230.835 261.88C230.062 262.92 229.049 263.747 227.795 264.36C226.542 264.973 225.155 265.28 223.635 265.28C221.289 265.28 219.409 264.507 217.995 262.96C216.582 261.387 215.875 259.253 215.875 256.56C215.875 255.68 215.955 254.747 216.115 253.76ZM232.275 253.76C232.355 253.36 232.395 252.987 232.395 252.64C232.395 251.52 232.075 250.653 231.435 250.04C230.822 249.427 230.022 249.12 229.035 249.12C227.862 249.12 226.809 249.533 225.875 250.36C224.942 251.16 224.355 252.293 224.115 253.76C224.035 254.16 223.995 254.547 223.995 254.92C223.995 256.04 224.302 256.907 224.915 257.52C225.555 258.133 226.369 258.44 227.355 258.44C228.529 258.44 229.582 258.027 230.515 257.2C231.449 256.373 232.035 255.227 232.275 253.76ZM285.303 242.36C287.489 242.36 289.196 243 290.423 244.28C291.676 245.533 292.303 247.28 292.303 249.52C292.303 250.267 292.223 251.067 292.063 251.92L289.743 265H281.903L284.023 252.96C284.103 252.56 284.143 252.2 284.143 251.88C284.143 250.92 283.863 250.173 283.303 249.64C282.769 249.107 282.009 248.84 281.023 248.84C279.903 248.84 278.956 249.187 278.183 249.88C277.409 250.573 276.889 251.533 276.623 252.76L274.463 265H266.583L270.583 242.56H278.423L277.863 245.76C278.743 244.747 279.823 243.933 281.103 243.32C282.383 242.68 283.783 242.36 285.303 242.36ZM318.725 253.76C319.151 251.413 319.991 249.387 321.245 247.68C322.525 245.947 324.098 244.613 325.965 243.68C327.858 242.747 329.911 242.28 332.125 242.28C334.978 242.28 337.245 243.067 338.925 244.64C340.605 246.187 341.485 248.36 341.565 251.16H333.205C332.991 249.693 332.178 248.96 330.765 248.96C329.778 248.96 328.925 249.373 328.205 250.2C327.485 251 326.991 252.187 326.725 253.76C326.618 254.293 326.565 254.827 326.565 255.36C326.565 256.427 326.791 257.24 327.245 257.8C327.698 258.333 328.311 258.6 329.085 258.6C330.525 258.6 331.578 257.867 332.245 256.4H340.605C339.565 259.173 337.925 261.347 335.685 262.92C333.471 264.493 330.925 265.28 328.045 265.28C325.111 265.28 322.778 264.48 321.045 262.88C319.338 261.28 318.485 259.08 318.485 256.28C318.485 255.48 318.565 254.64 318.725 253.76ZM380.462 242.28C383.395 242.28 385.715 243.067 387.422 244.64C389.155 246.213 390.022 248.36 390.022 251.08C390.022 251.987 389.955 252.787 389.822 253.48C389.662 254.333 389.502 254.947 389.342 255.32H374.502C374.475 255.48 374.462 255.72 374.462 256.04C374.462 257.053 374.702 257.8 375.182 258.28C375.688 258.76 376.355 259 377.182 259C378.488 259 379.528 258.413 380.302 257.24H388.622C388.008 258.787 387.088 260.173 385.862 261.4C384.662 262.6 383.235 263.547 381.582 264.24C379.955 264.933 378.222 265.28 376.382 265.28C373.448 265.28 371.115 264.48 369.382 262.88C367.648 261.28 366.782 259.08 366.782 256.28C366.782 255.48 366.862 254.64 367.022 253.76C367.448 251.413 368.288 249.387 369.542 247.68C370.822 245.947 372.395 244.613 374.262 243.68C376.155 242.747 378.222 242.28 380.462 242.28ZM382.102 251.8C382.155 251.427 382.182 251.187 382.182 251.08C382.182 250.227 381.915 249.587 381.382 249.16C380.848 248.707 380.155 248.48 379.302 248.48C378.315 248.48 377.462 248.76 376.742 249.32C376.022 249.88 375.488 250.707 375.142 251.8H382.102ZM511.331 258.72C514.291 256.667 516.691 254.947 518.531 253.56C520.397 252.147 522.011 250.707 523.371 249.24C524.731 247.773 525.517 246.413 525.731 245.16C525.784 244.733 525.811 244.44 525.811 244.28C525.811 243.08 525.211 242.48 524.011 242.48C523.237 242.48 522.611 242.773 522.131 243.36C521.651 243.947 521.277 244.933 521.011 246.32H513.411C514.157 242.8 515.664 240.187 517.931 238.48C520.197 236.747 522.797 235.88 525.731 235.88C528.584 235.88 530.677 236.507 532.011 237.76C533.344 239.013 534.011 240.653 534.011 242.68C534.011 243.32 533.957 243.907 533.851 244.44C533.371 247.053 532.011 249.533 529.771 251.88C527.557 254.2 524.904 256.32 521.811 258.24H531.811L530.691 264.6H510.291L511.331 258.72ZM559.744 250.44C560.544 246.04 562.104 242.547 564.424 239.96C566.744 237.373 569.904 236.08 573.904 236.08C577.184 236.08 579.584 236.973 581.104 238.76C582.651 240.52 583.424 242.96 583.424 246.08C583.424 247.547 583.291 249 583.024 250.44C582.251 254.84 580.691 258.347 578.344 260.96C575.997 263.547 572.837 264.84 568.864 264.84C565.584 264.84 563.171 263.96 561.624 262.2C560.104 260.44 559.344 257.987 559.344 254.84C559.344 253.4 559.477 251.933 559.744 250.44ZM575.264 250.44C575.504 249 575.624 247.893 575.624 247.12C575.624 245.973 575.397 245.08 574.944 244.44C574.491 243.8 573.717 243.48 572.624 243.48C571.051 243.48 569.891 244.093 569.144 245.32C568.397 246.547 567.837 248.253 567.464 250.44C567.224 251.88 567.104 253 567.104 253.8C567.104 254.947 567.331 255.84 567.784 256.48C568.237 257.12 569.024 257.44 570.144 257.44C571.717 257.44 572.851 256.84 573.544 255.64C574.264 254.413 574.837 252.68 575.264 250.44ZM608.393 258.72C611.353 256.667 613.753 254.947 615.593 253.56C617.46 252.147 619.073 250.707 620.433 249.24C621.793 247.773 622.58 246.413 622.793 245.16C622.846 244.733 622.873 244.44 622.873 244.28C622.873 243.08 622.273 242.48 621.073 242.48C620.3 242.48 619.673 242.773 619.193 243.36C618.713 243.947 618.34 244.933 618.073 246.32H610.473C611.22 242.8 612.726 240.187 614.993 238.48C617.26 236.747 619.86 235.88 622.793 235.88C625.646 235.88 627.74 236.507 629.073 237.76C630.406 239.013 631.073 240.653 631.073 242.68C631.073 243.32 631.02 243.907 630.913 244.44C630.433 247.053 629.073 249.533 626.833 251.88C624.62 254.2 621.966 256.32 618.873 258.24H628.873L627.753 264.6H607.353L608.393 258.72ZM679.527 242.68H667.487L666.687 247.12C667.327 246.587 668.113 246.16 669.047 245.84C669.98 245.52 670.967 245.36 672.007 245.36C674.407 245.36 676.193 246.04 677.367 247.4C678.54 248.733 679.127 250.467 679.127 252.6C679.127 253.267 679.06 254.027 678.927 254.88C678.367 258.027 677.033 260.507 674.927 262.32C672.82 264.107 670.18 265 667.007 265C664.047 265 661.753 264.333 660.127 263C658.527 261.667 657.727 259.867 657.727 257.6C657.727 257.093 657.767 256.56 657.847 256H665.527C665.473 256.613 665.633 257.147 666.007 257.6C666.407 258.053 667.033 258.28 667.887 258.28C668.847 258.28 669.62 257.96 670.207 257.32C670.793 256.68 671.18 255.827 671.367 254.76C671.42 254.333 671.447 254.04 671.447 253.88C671.447 253.133 671.233 252.56 670.807 252.16C670.38 251.76 669.767 251.56 668.967 251.56C668.247 251.56 667.633 251.747 667.127 252.12C666.62 252.467 666.273 252.907 666.087 253.44H658.487L661.607 235.76H680.727L679.527 242.68Z" fill="#F9C435"/>
</svg>
