<svg width="680" height="194" viewBox="0 0 680 194" fill="none" xmlns="http://www.w3.org/2000/svg">
<path d="M673.677 66.4315H633.741V96.4733C635.448 93.2804 637.837 90.6681 640.909 88.6363C643.981 86.6045 647.309 85.5886 650.893 85.5886C657.293 85.5886 662.584 88.0558 666.765 92.9902C671.032 97.9245 674.146 104.31 676.109 112.147C678.072 119.984 679.053 128.474 679.053 137.617C679.053 154.597 676.237 168.094 670.605 178.108C664.973 187.977 657.037 192.912 646.797 192.912C639.97 192.912 634.04 190.952 629.005 187.034C623.97 182.97 620.088 177.383 617.357 170.271C614.626 163.16 613.133 154.96 612.877 145.672H634.253C634.765 150.171 636.002 153.944 637.965 156.992C639.928 159.895 642.616 161.346 646.029 161.346C650.04 161.346 653.026 159.169 654.989 154.815C656.952 150.461 657.933 144.656 657.933 137.4C657.933 130.288 656.909 124.846 654.861 121.073C652.813 117.299 649.826 115.413 645.901 115.413C643 115.413 640.61 116.646 638.733 119.113C636.856 121.435 635.618 124.556 635.021 128.474H613.901V33.7775H673.677V66.4315Z" fill="#F9C435"/>
<path d="M534.242 163.087C537.143 159.169 538.466 157.355 538.21 157.645C546.573 145.89 553.143 136.239 557.922 128.692C562.786 121.145 566.882 113.236 570.21 104.963C573.538 96.6909 575.202 88.6362 575.202 80.7992C575.202 74.8489 574.391 70.2048 572.77 66.8668C571.149 63.5288 568.717 61.8599 565.474 61.8599C562.231 61.8599 559.671 63.9642 557.794 68.173C556.002 72.2366 555.106 78.0418 555.106 85.5885H533.986C534.157 73.2525 535.693 62.9483 538.594 54.676C541.581 46.4036 545.463 40.3082 550.242 36.3897C555.106 32.4712 560.482 30.512 566.37 30.512C576.525 30.512 584.162 34.9384 589.282 43.7913C594.487 52.6442 597.09 64.1819 597.09 78.4046C597.09 93.9334 593.975 108.374 587.746 121.726C581.517 134.932 573.581 147.849 563.938 160.475H598.498V190.735H534.242V163.087Z" fill="#F9C435"/>
<path d="M463.199 69.9146V100.827H492.511V129.563H463.199V163.087H496.351V192.911H441.311V40.0905H496.351V69.9146H463.199Z" fill="white"/>
<path d="M340.349 116.283C340.349 101.19 342.269 87.7655 346.109 76.01C349.949 64.1094 355.282 54.8937 362.109 48.3629C369.021 41.687 376.829 38.349 385.533 38.349C396.2 38.349 405.33 43.1383 412.925 52.7168C420.52 62.2953 425.597 75.3569 428.157 91.9017H404.093C402.301 85.516 399.741 80.6542 396.413 77.3162C393.17 73.9782 389.458 72.3092 385.277 72.3092C378.536 72.3092 373.074 76.3003 368.893 84.2824C364.712 92.2645 362.621 102.931 362.621 116.283C362.621 129.635 364.712 140.302 368.893 148.284C373.074 156.266 378.536 160.257 385.277 160.257C389.458 160.257 393.17 158.589 396.413 155.251C399.741 151.913 402.301 147.051 404.093 140.665H428.157C425.597 157.21 420.52 170.271 412.925 179.85C405.33 189.283 396.2 194 385.533 194C376.829 194 369.021 190.735 362.109 184.204C355.282 177.528 349.949 168.312 346.109 156.557C342.269 144.801 340.349 131.377 340.349 116.283Z" fill="white"/>
<path d="M328.445 192.911H306.557L269.949 98.6501V192.911H248.061V40.0905H269.949L306.557 134.787V40.0905H328.445V192.911Z" fill="white"/>
<path d="M209.872 165.917H176.336L170.96 192.911H148.048L180.56 40.0905H205.904L238.416 192.911H215.248L209.872 165.917ZM204.24 137.182L193.104 81.2346L182.096 137.182H204.24Z" fill="white"/>
<path d="M116.51 192.911L97.822 135.223H92.574V192.911H70.686V40.0905H107.422C114.505 40.0905 120.521 42.1949 125.47 46.4036C130.505 50.6124 134.259 56.4175 136.734 63.8191C139.209 71.0756 140.446 79.2028 140.446 88.2008C140.446 98.3599 138.739 107.43 135.326 115.413C131.998 123.395 127.049 129.055 120.478 132.393L141.214 192.911H116.51ZM92.574 108.882H106.142C110.153 108.882 113.139 107.213 115.102 103.875C117.15 100.537 118.174 95.8201 118.174 89.7247C118.174 83.9195 117.15 79.3479 115.102 76.01C113.139 72.672 110.153 71.003 106.142 71.003H92.574V108.882Z" fill="white"/>
<path d="M59.432 40.0905V69.9146H22.824V102.133H50.216V131.086H22.824V192.911H0.936035V40.0905H59.432Z" fill="white"/>
<path d="M12.688 18.36C13.664 18.568 14.448 19.056 15.04 19.824C15.632 20.576 15.928 21.44 15.928 22.416C15.928 23.824 15.432 24.944 14.44 25.776C13.464 26.592 12.096 27 10.336 27H2.488V10.152H10.072C11.784 10.152 13.12 10.544 14.08 11.328C15.056 12.112 15.544 13.176 15.544 14.52C15.544 15.512 15.28 16.336 14.752 16.992C14.24 17.648 13.552 18.104 12.688 18.36ZM6.592 16.968H9.28C9.952 16.968 10.464 16.824 10.816 16.536C11.184 16.232 11.368 15.792 11.368 15.216C11.368 14.64 11.184 14.2 10.816 13.896C10.464 13.592 9.952 13.44 9.28 13.44H6.592V16.968ZM9.616 23.688C10.304 23.688 10.832 23.536 11.2 23.232C11.584 22.912 11.776 22.456 11.776 21.864C11.776 21.272 11.576 20.808 11.176 20.472C10.792 20.136 10.256 19.968 9.568 19.968H6.592V23.688H9.616ZM32.4123 15.84C32.8923 15.104 33.4923 14.528 34.2123 14.112C34.9323 13.68 35.7323 13.464 36.6123 13.464V17.808H35.4843C34.4603 17.808 33.6923 18.032 33.1803 18.48C32.6683 18.912 32.4123 19.68 32.4123 20.784V27H28.3083V13.608H32.4123V15.84ZM47.7579 20.28C47.7579 18.904 48.0139 17.696 48.5259 16.656C49.0539 15.616 49.7659 14.816 50.6619 14.256C51.5579 13.696 52.5579 13.416 53.6619 13.416C54.6059 13.416 55.4299 13.608 56.1339 13.992C56.8539 14.376 57.4059 14.88 57.7899 15.504V13.608H61.8939V27H57.7899V25.104C57.3899 25.728 56.8299 26.232 56.1099 26.616C55.4059 27 54.5819 27.192 53.6379 27.192C52.5499 27.192 51.5579 26.912 50.6619 26.352C49.7659 25.776 49.0539 24.968 48.5259 23.928C48.0139 22.872 47.7579 21.656 47.7579 20.28ZM57.7899 20.304C57.7899 19.28 57.5019 18.472 56.9259 17.88C56.3659 17.288 55.6779 16.992 54.8619 16.992C54.0459 16.992 53.3499 17.288 52.7739 17.88C52.2139 18.456 51.9339 19.256 51.9339 20.28C51.9339 21.304 52.2139 22.12 52.7739 22.728C53.3499 23.32 54.0459 23.616 54.8619 23.616C55.6779 23.616 56.3659 23.32 56.9259 22.728C57.5019 22.136 57.7899 21.328 57.7899 20.304ZM83.023 13.464C84.591 13.464 85.839 13.976 86.767 15C87.711 16.008 88.183 17.4 88.183 19.176V27H84.103V19.728C84.103 18.832 83.871 18.136 83.407 17.64C82.943 17.144 82.319 16.896 81.535 16.896C80.751 16.896 80.127 17.144 79.663 17.64C79.199 18.136 78.967 18.832 78.967 19.728V27H74.863V13.608H78.967V15.384C79.383 14.792 79.943 14.328 80.647 13.992C81.351 13.64 82.143 13.464 83.023 13.464ZM100.219 20.28C100.219 18.904 100.475 17.696 100.987 16.656C101.515 15.616 102.227 14.816 103.123 14.256C104.019 13.696 105.019 13.416 106.123 13.416C107.003 13.416 107.803 13.6 108.523 13.968C109.259 14.336 109.835 14.832 110.251 15.456V9.24H114.355V27H110.251V25.08C109.867 25.72 109.315 26.232 108.595 26.616C107.891 27 107.067 27.192 106.123 27.192C105.019 27.192 104.019 26.912 103.123 26.352C102.227 25.776 101.515 24.968 100.987 23.928C100.475 22.872 100.219 21.656 100.219 20.28ZM110.251 20.304C110.251 19.28 109.963 18.472 109.387 17.88C108.827 17.288 108.139 16.992 107.323 16.992C106.507 16.992 105.811 17.288 105.235 17.88C104.675 18.456 104.395 19.256 104.395 20.28C104.395 21.304 104.675 22.12 105.235 22.728C105.811 23.32 106.507 23.616 107.323 23.616C108.139 23.616 108.827 23.32 109.387 22.728C109.963 22.136 110.251 21.328 110.251 20.304ZM129.364 12.216C128.644 12.216 128.052 12.008 127.588 11.592C127.14 11.16 126.916 10.632 126.916 10.008C126.916 9.368 127.14 8.84 127.588 8.424C128.052 7.992 128.644 7.776 129.364 7.776C130.068 7.776 130.644 7.992 131.092 8.424C131.556 8.84 131.788 9.368 131.788 10.008C131.788 10.632 131.556 11.16 131.092 11.592C130.644 12.008 130.068 12.216 129.364 12.216ZM131.428 28.728C131.428 30.376 131.012 31.56 130.18 32.28C129.348 33.016 128.188 33.384 126.7 33.384H125.092V29.904H126.076C126.524 29.904 126.844 29.816 127.036 29.64C127.228 29.464 127.324 29.176 127.324 28.776V13.608H131.428V28.728ZM157.003 20.088C157.003 20.472 156.979 20.872 156.931 21.288H147.643C147.707 22.12 147.971 22.76 148.435 23.208C148.915 23.64 149.499 23.856 150.187 23.856C151.211 23.856 151.923 23.424 152.323 22.56H156.691C156.467 23.44 156.059 24.232 155.467 24.936C154.891 25.64 154.163 26.192 153.283 26.592C152.403 26.992 151.419 27.192 150.331 27.192C149.019 27.192 147.851 26.912 146.827 26.352C145.803 25.792 145.003 24.992 144.427 23.952C143.851 22.912 143.563 21.696 143.563 20.304C143.563 18.912 143.843 17.696 144.403 16.656C144.979 15.616 145.779 14.816 146.803 14.256C147.827 13.696 149.003 13.416 150.331 13.416C151.627 13.416 152.779 13.688 153.787 14.232C154.795 14.776 155.579 15.552 156.139 16.56C156.715 17.568 157.003 18.744 157.003 20.088ZM152.803 19.008C152.803 18.304 152.563 17.744 152.083 17.328C151.603 16.912 151.003 16.704 150.283 16.704C149.595 16.704 149.011 16.904 148.531 17.304C148.067 17.704 147.779 18.272 147.667 19.008H152.803ZM174.616 27.192C173.448 27.192 172.408 26.992 171.496 26.592C170.584 26.192 169.864 25.648 169.336 24.96C168.808 24.256 168.512 23.472 168.448 22.608H172.504C172.552 23.072 172.768 23.448 173.152 23.736C173.536 24.024 174.008 24.168 174.568 24.168C175.08 24.168 175.472 24.072 175.744 23.88C176.032 23.672 176.176 23.408 176.176 23.088C176.176 22.704 175.976 22.424 175.576 22.248C175.176 22.056 174.528 21.848 173.632 21.624C172.672 21.4 171.872 21.168 171.232 20.928C170.592 20.672 170.04 20.28 169.576 19.752C169.112 19.208 168.88 18.48 168.88 17.568C168.88 16.8 169.088 16.104 169.504 15.48C169.936 14.84 170.56 14.336 171.376 13.968C172.208 13.6 173.192 13.416 174.328 13.416C176.008 13.416 177.328 13.832 178.288 14.664C179.264 15.496 179.824 16.6 179.968 17.976H176.176C176.112 17.512 175.904 17.144 175.552 16.872C175.216 16.6 174.768 16.464 174.208 16.464C173.728 16.464 173.36 16.56 173.104 16.752C172.848 16.928 172.72 17.176 172.72 17.496C172.72 17.88 172.92 18.168 173.32 18.36C173.736 18.552 174.376 18.744 175.24 18.936C176.232 19.192 177.04 19.448 177.664 19.704C178.288 19.944 178.832 20.344 179.296 20.904C179.776 21.448 180.024 22.184 180.04 23.112C180.04 23.896 179.816 24.6 179.368 25.224C178.936 25.832 178.304 26.312 177.472 26.664C176.656 27.016 175.704 27.192 174.616 27.192Z" fill="#F9C435"/>
</svg>
