<svg width="1342" height="531" viewBox="0 0 1342 531" fill="none" xmlns="http://www.w3.org/2000/svg">
<path d="M875.821 457.083H797.264L784.671 530.471H731L807.158 115H866.526L942.684 530.471H888.414L875.821 457.083ZM862.628 378.96L836.542 226.858L810.756 378.96H862.628Z" fill="white"/>
<path d="M536.163 451.389H603.326V529.512H484.891V114.041H536.163V451.389Z" fill="white"/>
<path d="M395.434 456.124H316.877L304.284 529.512H250.613L326.772 114.041H386.139L462.297 529.512H408.027L395.434 456.124ZM382.241 378.001L356.155 225.899L330.37 378.001H382.241Z" fill="white"/>
<path d="M1168.22 432.063V391.375L1276.81 104.794H1310.53V385.478H1341.47V432.063H1310.53V527H1282.69V432.063H1168.22ZM1283.93 160.813L1200.7 385.478H1283.93V160.813Z" fill="#F9C435"/>
<path d="M1013 483.954C1039.19 443.856 1059.72 411.031 1074.57 385.478C1089.42 359.532 1101.9 332.604 1112 304.693C1122.32 276.389 1127.47 248.674 1127.47 221.549C1127.47 195.996 1124.17 175.947 1117.57 161.402C1111.18 146.464 1100.76 138.995 1086.32 138.995C1072.3 138.995 1061.37 147.447 1053.53 164.351C1045.9 180.861 1041.77 203.072 1041.15 230.984H1013.93C1014.75 186.955 1021.77 152.95 1034.97 128.97C1048.17 104.99 1065.18 93 1086.01 93C1107.26 93 1124.07 104.204 1136.44 126.611C1149.03 149.019 1155.32 179.879 1155.32 219.19C1155.32 251.819 1150.16 283.661 1139.85 314.717C1129.74 345.38 1118.19 372.505 1105.2 396.092C1092.2 419.286 1075.6 446.411 1055.39 477.467H1161.81V522.282H1013V483.954Z" fill="#F9C435"/>
<path d="M239.26 114.041V195.123H183.49V529.512H132.218V195.123H76.4487V114.041H239.26Z" fill="white"/>
<path d="M51.2719 114.041V529.512H0V114.041H51.2719Z" fill="white"/>
<path d="M710.993 493.326C710.995 503.055 708.906 510.991 704.726 517.136C700.46 523.195 694.445 526.226 686.68 526.227C685.912 526.227 684.76 526.142 683.224 525.972L683.219 503.188C686.462 503.443 689.022 502.675 690.899 500.882C692.776 499.09 693.714 496.359 693.713 492.69C693.712 489.362 692.987 486.759 691.536 484.882C690.084 482.92 688.036 481.939 685.391 481.94C682.66 481.94 680.442 483.178 678.736 485.653C677.029 488.043 675.11 491.798 672.978 496.918C670.931 501.868 669.012 505.921 667.22 509.079C665.344 512.151 662.827 514.84 659.67 517.145C656.513 519.449 652.545 520.602 647.767 520.603C641.879 520.689 636.758 519.24 632.406 516.254C628.053 513.268 624.724 509.13 622.419 503.84C620.114 498.55 618.961 492.491 618.96 485.665C618.958 479.521 619.939 474.059 621.9 469.28C623.777 464.501 626.549 460.788 630.218 458.142C633.802 455.496 638.068 454.173 643.017 454.172C644.297 454.172 645.236 454.214 645.833 454.299L645.838 477.595C645.497 477.51 644.985 477.467 644.302 477.468C641.913 477.468 639.993 478.322 638.543 480.029C637.007 481.65 636.239 483.912 636.24 486.813C636.24 489.885 637.009 492.402 638.545 494.365C639.996 496.242 642.002 497.18 644.562 497.18C647.122 497.179 649.298 495.984 651.089 493.594C652.795 491.205 654.8 487.492 657.103 482.457C659.406 477.422 661.539 473.326 663.501 470.168C665.463 466.925 668.107 464.151 671.435 461.846C674.677 459.542 678.688 458.389 683.466 458.388C688.757 458.387 693.493 459.794 697.675 462.609C701.857 465.424 705.143 469.477 707.534 474.767C709.839 480.057 710.992 486.244 710.993 493.326ZM620.225 409.671L710.084 425.526L710.088 447.414L620.229 431.559L620.225 409.671ZM665.023 403.321C656.148 401.786 648.255 398.503 641.342 393.469C634.343 388.351 628.923 382.037 625.082 374.528C621.155 367.02 619.191 358.914 619.189 350.21C619.187 339.543 622.001 330.924 627.632 324.352C633.263 317.695 640.942 313.939 650.67 313.083L650.674 337.147C647.005 338.257 644.232 340.306 642.356 343.293C640.394 346.195 639.413 349.779 639.414 354.046C639.415 360.787 641.763 366.632 646.457 371.58C651.066 376.529 657.253 379.685 665.019 381.049C667.408 381.475 669.499 381.688 671.291 381.687C677.265 381.686 682 380.021 685.498 376.693C688.996 373.364 690.745 368.798 690.744 362.995C690.743 358.814 689.761 354.932 687.797 351.348C685.834 347.679 683.017 344.608 679.347 342.134L679.343 318.07C689.072 322.334 696.753 328.776 702.386 337.393C707.935 346.011 710.71 355.653 710.712 366.32C710.714 374 709.222 380.699 706.236 386.416C703.251 392.134 699.027 396.53 693.567 399.603C688.106 402.676 681.749 404.213 674.496 404.215C671.253 404.215 668.096 403.917 665.023 403.321ZM620.197 270.421L710.056 286.276L710.061 308.164L620.202 292.309L620.197 270.421ZM693.408 243.585L693.402 214.913L710.043 217.854L710.053 268.414L620.194 252.559L620.189 230.671L693.408 243.585ZM620.166 112.503L680.334 154.092L710.031 159.462L710.036 181.35L680.339 175.98L620.183 196.599L620.178 171.767L657.68 161.008L620.171 137.079L620.166 112.503Z" fill="white"/>
<path d="M23.376 73.72C25.328 74.136 26.896 75.112 28.08 76.648C29.264 78.152 29.856 79.88 29.856 81.832C29.856 84.648 28.864 86.888 26.88 88.552C24.928 90.184 22.192 91 18.672 91H2.976V57.304H18.144C21.568 57.304 24.24 58.088 26.16 59.656C28.112 61.224 29.088 63.352 29.088 66.04C29.088 68.024 28.56 69.672 27.504 70.984C26.48 72.296 25.104 73.208 23.376 73.72ZM11.184 70.936H16.56C17.904 70.936 18.928 70.648 19.632 70.072C20.368 69.464 20.736 68.584 20.736 67.432C20.736 66.28 20.368 65.4 19.632 64.792C18.928 64.184 17.904 63.88 16.56 63.88H11.184V70.936ZM17.232 84.376C18.608 84.376 19.664 84.072 20.4 83.464C21.168 82.824 21.552 81.912 21.552 80.728C21.552 79.544 21.152 78.616 20.352 77.944C19.584 77.272 18.512 76.936 17.136 76.936H11.184V84.376H17.232ZM64.8246 68.68C65.7846 67.208 66.9846 66.056 68.4246 65.224C69.8646 64.36 71.4646 63.928 73.2246 63.928V72.616H70.9686C68.9206 72.616 67.3846 73.064 66.3606 73.96C65.3366 74.824 64.8246 76.36 64.8246 78.568V91H56.6166V64.216H64.8246V68.68ZM97.5159 77.56C97.5159 74.808 98.0279 72.392 99.0519 70.312C100.108 68.232 101.532 66.632 103.324 65.512C105.116 64.392 107.116 63.832 109.324 63.832C111.212 63.832 112.86 64.216 114.268 64.984C115.708 65.752 116.812 66.76 117.58 68.008V64.216H125.788V91H117.58V87.208C116.78 88.456 115.66 89.464 114.22 90.232C112.812 91 111.164 91.384 109.276 91.384C107.1 91.384 105.116 90.824 103.324 89.704C101.532 88.552 100.108 86.936 99.0519 84.856C98.0279 82.744 97.5159 80.312 97.5159 77.56ZM117.58 77.608C117.58 75.56 117.004 73.944 115.852 72.76C114.732 71.576 113.356 70.984 111.724 70.984C110.092 70.984 108.7 71.576 107.548 72.76C106.428 73.912 105.868 75.512 105.868 77.56C105.868 79.608 106.428 81.24 107.548 82.456C108.7 83.64 110.092 84.232 111.724 84.232C113.356 84.232 114.732 83.64 115.852 82.456C117.004 81.272 117.58 79.656 117.58 77.608ZM170.046 63.928C173.182 63.928 175.678 64.952 177.534 67C179.422 69.016 180.366 71.8 180.366 75.352V91H172.206V76.456C172.206 74.664 171.742 73.272 170.814 72.28C169.886 71.288 168.638 70.792 167.07 70.792C165.502 70.792 164.254 71.288 163.326 72.28C162.398 73.272 161.934 74.664 161.934 76.456V91H153.726V64.216H161.934V67.768C162.766 66.584 163.886 65.656 165.294 64.984C166.702 64.28 168.286 63.928 170.046 63.928ZM206.438 77.56C206.438 74.808 206.95 72.392 207.974 70.312C209.03 68.232 210.454 66.632 212.246 65.512C214.038 64.392 216.038 63.832 218.246 63.832C220.006 63.832 221.606 64.2 223.046 64.936C224.518 65.672 225.67 66.664 226.502 67.912V55.48H234.71V91H226.502V87.16C225.734 88.44 224.63 89.464 223.19 90.232C221.782 91 220.134 91.384 218.246 91.384C216.038 91.384 214.038 90.824 212.246 89.704C210.454 88.552 209.03 86.936 207.974 84.856C206.95 82.744 206.438 80.312 206.438 77.56ZM226.502 77.608C226.502 75.56 225.926 73.944 224.774 72.76C223.654 71.576 222.278 70.984 220.646 70.984C219.014 70.984 217.622 71.576 216.47 72.76C215.35 73.912 214.79 75.512 214.79 77.56C214.79 79.608 215.35 81.24 216.47 82.456C217.622 83.64 219.014 84.232 220.646 84.232C222.278 84.232 223.654 83.64 224.774 82.456C225.926 81.272 226.502 79.656 226.502 77.608ZM266.728 61.432C265.288 61.432 264.104 61.016 263.176 60.184C262.28 59.32 261.832 58.264 261.832 57.016C261.832 55.736 262.28 54.68 263.176 53.848C264.104 52.984 265.288 52.552 266.728 52.552C268.136 52.552 269.288 52.984 270.184 53.848C271.112 54.68 271.576 55.736 271.576 57.016C271.576 58.264 271.112 59.32 270.184 60.184C269.288 61.016 268.136 61.432 266.728 61.432ZM270.856 94.456C270.856 97.752 270.024 100.12 268.36 101.56C266.696 103.032 264.376 103.768 261.4 103.768H258.184V96.808H260.152C261.048 96.808 261.688 96.632 262.072 96.28C262.456 95.928 262.648 95.352 262.648 94.552V64.216H270.856V94.456ZM324.005 77.176C324.005 77.944 323.957 78.744 323.861 79.576H305.285C305.413 81.24 305.941 82.52 306.869 83.416C307.829 84.28 308.997 84.712 310.373 84.712C312.421 84.712 313.845 83.848 314.645 82.12H323.381C322.933 83.88 322.117 85.464 320.933 86.872C319.781 88.28 318.325 89.384 316.565 90.184C314.805 90.984 312.837 91.384 310.661 91.384C308.037 91.384 305.701 90.824 303.653 89.704C301.605 88.584 300.005 86.984 298.853 84.904C297.701 82.824 297.125 80.392 297.125 77.608C297.125 74.824 297.685 72.392 298.805 70.312C299.957 68.232 301.557 66.632 303.605 65.512C305.653 64.392 308.005 63.832 310.661 63.832C313.253 63.832 315.557 64.376 317.573 65.464C319.589 66.552 321.157 68.104 322.277 70.12C323.429 72.136 324.005 74.488 324.005 77.176ZM315.605 75.016C315.605 73.608 315.125 72.488 314.165 71.656C313.205 70.824 312.005 70.408 310.565 70.408C309.189 70.408 308.021 70.808 307.061 71.608C306.133 72.408 305.557 73.544 305.333 75.016H315.605ZM361.231 91.384C358.895 91.384 356.815 90.984 354.991 90.184C353.167 89.384 351.727 88.296 350.671 86.92C349.615 85.512 349.023 83.944 348.895 82.216H357.007C357.103 83.144 357.535 83.896 358.303 84.472C359.071 85.048 360.015 85.336 361.135 85.336C362.159 85.336 362.943 85.144 363.487 84.76C364.063 84.344 364.351 83.816 364.351 83.176C364.351 82.408 363.951 81.848 363.151 81.496C362.351 81.112 361.055 80.696 359.263 80.248C357.343 79.8 355.743 79.336 354.463 78.856C353.183 78.344 352.079 77.56 351.151 76.504C350.223 75.416 349.759 73.96 349.759 72.136C349.759 70.6 350.175 69.208 351.007 67.96C351.871 66.68 353.119 65.672 354.751 64.936C356.415 64.2 358.383 63.832 360.655 63.832C364.015 63.832 366.655 64.664 368.575 66.328C370.527 67.992 371.647 70.2 371.935 72.952H364.351C364.223 72.024 363.807 71.288 363.103 70.744C362.431 70.2 361.535 69.928 360.415 69.928C359.455 69.928 358.719 70.12 358.207 70.504C357.695 70.856 357.439 71.352 357.439 71.992C357.439 72.76 357.839 73.336 358.639 73.72C359.471 74.104 360.751 74.488 362.479 74.872C364.463 75.384 366.079 75.896 367.327 76.408C368.575 76.888 369.663 77.688 370.591 78.808C371.551 79.896 372.047 81.368 372.079 83.224C372.079 84.792 371.631 86.2 370.735 87.448C369.871 88.664 368.607 89.624 366.943 90.328C365.311 91.032 363.407 91.384 361.231 91.384Z" fill="#F9C435"/>
</svg>
