<svg width="563" height="184" viewBox="0 0 563 184" fill="none" xmlns="http://www.w3.org/2000/svg">
<path d="M486.836 156.714V128.616L527.284 36.5824H551.732V126.579H562.228V156.714H551.732V183.184H529.844V156.714H486.836ZM531.38 74.8617L509.876 126.579H531.38V74.8617Z" fill="#F9C435"/>
<path d="M412.681 155.289C415.582 151.624 416.905 149.927 416.649 150.199C425.011 139.203 431.582 130.177 436.361 123.118C441.225 116.059 445.321 108.661 448.649 100.924C451.977 93.1869 453.641 85.6532 453.641 78.3231C453.641 72.7577 452.83 68.414 451.209 65.2919C449.587 62.1698 447.155 60.6088 443.913 60.6088C440.67 60.6088 438.11 62.5771 436.233 66.5136C434.441 70.3144 433.545 75.744 433.545 82.8026H412.425C412.595 71.2646 414.131 61.6269 417.033 53.8896C420.019 46.1523 423.902 40.4511 428.681 36.7861C433.545 33.121 438.921 31.2885 444.809 31.2885C454.963 31.2885 462.601 35.4286 467.721 43.7089C472.926 51.9892 475.529 62.7807 475.529 76.0834C475.529 90.6078 472.414 104.114 466.185 116.602C459.955 128.955 452.019 141.036 442.377 152.846H476.937V181.148H412.681V155.289Z" fill="#F9C435"/>
<path d="M350.561 157.936H317.025L311.649 183.184H288.737L321.249 40.2476H346.593L379.105 183.184H355.937L350.561 157.936ZM344.929 131.059L333.793 78.7304L322.785 131.059H344.929Z" fill="white"/>
<path d="M228.888 156.307H257.56V183.184H207V40.2476H228.888V156.307Z" fill="white"/>
<path d="M168.811 157.936H135.275L129.899 183.184H106.987L139.499 40.2476H164.843L197.355 183.184H174.187L168.811 157.936ZM163.179 131.059L152.043 78.7304L141.035 131.059H163.179Z" fill="white"/>
<path d="M102.14 40.2476V68.1426H78.332V183.184H56.444V68.1426H32.636V40.2476H102.14Z" fill="white"/>
<path d="M21.888 40.2476V183.184H0V40.2476H21.888Z" fill="white"/>
<path d="M263.6 27.0071L278.642 39.3718L286.066 39.3695L286.067 48.074L278.643 48.0763L263.604 60.4505L263.603 50.5753L273.01 43.6495L263.601 36.7805L263.6 27.0071Z" fill="white"/>
<path d="M281.846 72.8015L281.844 61.3992L286.068 61.3978L286.071 81.5046L263.607 81.5117L263.606 72.8072L281.846 72.8015Z" fill="white"/>
<path d="M263.608 87.422L286.072 87.415L286.073 96.1194L263.609 96.1265L263.608 87.422Z" fill="white"/>
<path d="M274.814 135.976C272.595 135.976 270.622 135.213 268.893 133.687C267.144 132.16 265.789 130.04 264.829 127.325C263.847 124.577 263.356 121.472 263.355 118.01C263.355 113.768 264.058 110.137 265.466 107.116C266.874 104.096 268.793 102.076 271.225 101.057L271.227 110.627C270.288 111.34 269.573 112.358 269.083 113.682C268.592 114.971 268.347 116.448 268.347 118.111C268.348 120.791 268.935 122.963 270.108 124.626C271.282 126.288 272.85 127.119 274.813 127.118C276.775 127.118 278.343 126.286 279.516 124.623C280.689 122.959 281.276 120.787 281.275 118.106C281.275 116.444 281.03 114.968 280.539 113.678C280.048 112.355 279.333 111.337 278.395 110.625L278.393 101.055C280.825 102.072 282.746 104.091 284.154 107.11C285.541 110.13 286.235 113.761 286.235 118.003C286.236 121.465 285.756 124.57 284.797 127.319C283.816 130.034 282.461 132.155 280.733 133.683C279.006 135.211 277.032 135.975 274.814 135.976Z" fill="white"/>
<path d="M263.614 140.413L286.078 140.406L286.079 149.111L263.615 149.118L263.614 140.413Z" fill="white"/>
<path d="M286.306 167.101C286.306 169.714 286.04 172.055 285.506 174.126C284.973 176.196 284.184 177.859 283.139 179.115C282.094 180.337 280.835 180.982 279.363 181.05L279.362 171.786C280.194 171.65 280.834 171.192 281.282 170.411C281.709 169.63 281.922 168.612 281.922 167.357C281.921 166.067 281.74 165.049 281.377 164.303C280.993 163.556 280.47 163.183 279.809 163.183C279.254 163.183 278.796 163.489 278.433 164.1C278.071 164.677 277.772 165.407 277.537 166.289C277.303 167.137 277.036 168.359 276.738 169.954C276.29 172.262 275.842 174.146 275.395 175.605C274.947 177.064 274.286 178.32 273.411 179.372C272.537 180.425 271.395 180.951 269.987 180.952C267.897 180.952 266.264 179.748 265.091 177.339C263.896 174.93 263.298 171.791 263.298 167.922C263.297 163.986 263.894 160.813 265.089 158.403C266.262 155.993 267.904 154.703 270.016 154.533L270.017 163.95C269.292 164.018 268.727 164.442 268.321 165.223C267.895 166.004 267.682 167.005 267.682 168.226C267.682 169.278 267.863 170.127 268.226 170.771C268.567 171.416 269.069 171.738 269.73 171.738C270.455 171.738 271.021 171.195 271.426 170.109C271.831 169.023 272.268 167.326 272.737 165.018C273.228 162.71 273.697 160.844 274.145 159.418C274.592 157.959 275.243 156.703 276.096 155.651C276.949 154.598 278.048 154.072 279.392 154.072C280.672 154.071 281.835 154.597 282.88 155.649C283.926 156.666 284.758 158.159 285.377 160.127C285.996 162.095 286.305 164.42 286.306 167.101Z" fill="white"/>
<path d="M11.688 18.36C12.664 18.568 13.448 19.056 14.04 19.824C14.632 20.576 14.928 21.44 14.928 22.416C14.928 23.824 14.432 24.944 13.44 25.776C12.464 26.592 11.096 27 9.336 27H1.488V10.152H9.072C10.784 10.152 12.12 10.544 13.08 11.328C14.056 12.112 14.544 13.176 14.544 14.52C14.544 15.512 14.28 16.336 13.752 16.992C13.24 17.648 12.552 18.104 11.688 18.36ZM5.592 16.968H8.28C8.952 16.968 9.464 16.824 9.816 16.536C10.184 16.232 10.368 15.792 10.368 15.216C10.368 14.64 10.184 14.2 9.816 13.896C9.464 13.592 8.952 13.44 8.28 13.44H5.592V16.968ZM8.616 23.688C9.304 23.688 9.832 23.536 10.2 23.232C10.584 22.912 10.776 22.456 10.776 21.864C10.776 21.272 10.576 20.808 10.176 20.472C9.792 20.136 9.256 19.968 8.568 19.968H5.592V23.688H8.616ZM31.4123 15.84C31.8923 15.104 32.4923 14.528 33.2123 14.112C33.9323 13.68 34.7323 13.464 35.6123 13.464V17.808H34.4843C33.4603 17.808 32.6923 18.032 32.1803 18.48C31.6683 18.912 31.4123 19.68 31.4123 20.784V27H27.3083V13.608H31.4123V15.84ZM46.7579 20.28C46.7579 18.904 47.0139 17.696 47.5259 16.656C48.0539 15.616 48.7659 14.816 49.6619 14.256C50.5579 13.696 51.5579 13.416 52.6619 13.416C53.6059 13.416 54.4299 13.608 55.1339 13.992C55.8539 14.376 56.4059 14.88 56.7899 15.504V13.608H60.8939V27H56.7899V25.104C56.3899 25.728 55.8299 26.232 55.1099 26.616C54.4059 27 53.5819 27.192 52.6379 27.192C51.5499 27.192 50.5579 26.912 49.6619 26.352C48.7659 25.776 48.0539 24.968 47.5259 23.928C47.0139 22.872 46.7579 21.656 46.7579 20.28ZM56.7899 20.304C56.7899 19.28 56.5019 18.472 55.9259 17.88C55.3659 17.288 54.6779 16.992 53.8619 16.992C53.0459 16.992 52.3499 17.288 51.7739 17.88C51.2139 18.456 50.9339 19.256 50.9339 20.28C50.9339 21.304 51.2139 22.12 51.7739 22.728C52.3499 23.32 53.0459 23.616 53.8619 23.616C54.6779 23.616 55.3659 23.32 55.9259 22.728C56.5019 22.136 56.7899 21.328 56.7899 20.304ZM82.023 13.464C83.591 13.464 84.839 13.976 85.767 15C86.711 16.008 87.183 17.4 87.183 19.176V27H83.103V19.728C83.103 18.832 82.871 18.136 82.407 17.64C81.943 17.144 81.319 16.896 80.535 16.896C79.751 16.896 79.127 17.144 78.663 17.64C78.199 18.136 77.967 18.832 77.967 19.728V27H73.863V13.608H77.967V15.384C78.383 14.792 78.943 14.328 79.647 13.992C80.351 13.64 81.143 13.464 82.023 13.464ZM99.2189 20.28C99.2189 18.904 99.4749 17.696 99.9869 16.656C100.515 15.616 101.227 14.816 102.123 14.256C103.019 13.696 104.019 13.416 105.123 13.416C106.003 13.416 106.803 13.6 107.523 13.968C108.259 14.336 108.835 14.832 109.251 15.456V9.24H113.355V27H109.251V25.08C108.867 25.72 108.315 26.232 107.595 26.616C106.891 27 106.067 27.192 105.123 27.192C104.019 27.192 103.019 26.912 102.123 26.352C101.227 25.776 100.515 24.968 99.9869 23.928C99.4749 22.872 99.2189 21.656 99.2189 20.28ZM109.251 20.304C109.251 19.28 108.963 18.472 108.387 17.88C107.827 17.288 107.139 16.992 106.323 16.992C105.507 16.992 104.811 17.288 104.235 17.88C103.675 18.456 103.395 19.256 103.395 20.28C103.395 21.304 103.675 22.12 104.235 22.728C104.811 23.32 105.507 23.616 106.323 23.616C107.139 23.616 107.827 23.32 108.387 22.728C108.963 22.136 109.251 21.328 109.251 20.304ZM128.364 12.216C127.644 12.216 127.052 12.008 126.588 11.592C126.14 11.16 125.916 10.632 125.916 10.008C125.916 9.368 126.14 8.84 126.588 8.424C127.052 7.992 127.644 7.776 128.364 7.776C129.068 7.776 129.644 7.992 130.092 8.424C130.556 8.84 130.788 9.368 130.788 10.008C130.788 10.632 130.556 11.16 130.092 11.592C129.644 12.008 129.068 12.216 128.364 12.216ZM130.428 28.728C130.428 30.376 130.012 31.56 129.18 32.28C128.348 33.016 127.188 33.384 125.7 33.384H124.092V29.904H125.076C125.524 29.904 125.844 29.816 126.036 29.64C126.228 29.464 126.324 29.176 126.324 28.776V13.608H130.428V28.728ZM156.003 20.088C156.003 20.472 155.979 20.872 155.931 21.288H146.643C146.707 22.12 146.971 22.76 147.435 23.208C147.915 23.64 148.499 23.856 149.187 23.856C150.211 23.856 150.923 23.424 151.323 22.56H155.691C155.467 23.44 155.059 24.232 154.467 24.936C153.891 25.64 153.163 26.192 152.283 26.592C151.403 26.992 150.419 27.192 149.331 27.192C148.019 27.192 146.851 26.912 145.827 26.352C144.803 25.792 144.003 24.992 143.427 23.952C142.851 22.912 142.563 21.696 142.563 20.304C142.563 18.912 142.843 17.696 143.403 16.656C143.979 15.616 144.779 14.816 145.803 14.256C146.827 13.696 148.003 13.416 149.331 13.416C150.627 13.416 151.779 13.688 152.787 14.232C153.795 14.776 154.579 15.552 155.139 16.56C155.715 17.568 156.003 18.744 156.003 20.088ZM151.803 19.008C151.803 18.304 151.563 17.744 151.083 17.328C150.603 16.912 150.003 16.704 149.283 16.704C148.595 16.704 148.011 16.904 147.531 17.304C147.067 17.704 146.779 18.272 146.667 19.008H151.803ZM173.616 27.192C172.448 27.192 171.408 26.992 170.496 26.592C169.584 26.192 168.864 25.648 168.336 24.96C167.808 24.256 167.512 23.472 167.448 22.608H171.504C171.552 23.072 171.768 23.448 172.152 23.736C172.536 24.024 173.008 24.168 173.568 24.168C174.08 24.168 174.472 24.072 174.744 23.88C175.032 23.672 175.176 23.408 175.176 23.088C175.176 22.704 174.976 22.424 174.576 22.248C174.176 22.056 173.528 21.848 172.632 21.624C171.672 21.4 170.872 21.168 170.232 20.928C169.592 20.672 169.04 20.28 168.576 19.752C168.112 19.208 167.88 18.48 167.88 17.568C167.88 16.8 168.088 16.104 168.504 15.48C168.936 14.84 169.56 14.336 170.376 13.968C171.208 13.6 172.192 13.416 173.328 13.416C175.008 13.416 176.328 13.832 177.288 14.664C178.264 15.496 178.824 16.6 178.968 17.976H175.176C175.112 17.512 174.904 17.144 174.552 16.872C174.216 16.6 173.768 16.464 173.208 16.464C172.728 16.464 172.36 16.56 172.104 16.752C171.848 16.928 171.72 17.176 171.72 17.496C171.72 17.88 171.92 18.168 172.32 18.36C172.736 18.552 173.376 18.744 174.24 18.936C175.232 19.192 176.04 19.448 176.664 19.704C177.288 19.944 177.832 20.344 178.296 20.904C178.776 21.448 179.024 22.184 179.04 23.112C179.04 23.896 178.816 24.6 178.368 25.224C177.936 25.832 177.304 26.312 176.472 26.664C175.656 27.016 174.704 27.192 173.616 27.192Z" fill="#F9C435"/>
</svg>
