<svg width="124" height="121" viewBox="0 0 124 121" fill="none" xmlns="http://www.w3.org/2000/svg">
<path d="M69.168 15.816H119.856V29.768H69.168V15.816ZM64.944 54.856H79.408V120.392H64.944V54.856ZM68.272 0.199997L83.504 3.144C79.024 21.448 70.832 38.344 60.72 48.968C58.032 46.28 51.76 41.416 48.176 39.368C57.904 30.28 64.816 15.688 68.272 0.199997ZM95.92 47.56C99.504 73.544 107.184 96.584 123.824 107.336C120.368 110.152 115.632 116.168 113.456 120.136C94.768 106.44 87.088 80.968 82.736 49.352L95.92 47.56ZM112.56 53.576L123.312 63.176C116.272 69.96 107.184 77.384 100.4 81.992L91.44 73.288C97.968 68.424 107.312 59.976 112.56 53.576ZM3.248 19.784H56.368V33.992H3.248V19.784ZM23.088 46.536H43.952V60.488H23.088V46.536ZM22.576 0.327995H37.296V24.392H22.576V0.327995ZM38.96 46.536H52.784C52.784 46.536 52.784 50.76 52.784 52.552C52.144 94.152 51.504 109.512 48.304 114.248C45.872 117.832 43.44 118.984 39.984 119.624C36.784 120.264 31.792 120.264 26.672 120.136C26.416 116.04 25.008 110.28 22.96 106.44C26.928 106.952 30.256 107.08 32.304 107.08C33.968 107.08 34.992 106.568 36.016 105.16C37.808 102.088 38.448 88.776 38.96 49.352V46.536ZM16.304 28.872H29.744V54.088C29.744 75.08 27.568 100.168 11.696 120.904C9.136 117.832 4.144 113.992 0.304 111.56C14.512 92.872 16.304 71.112 16.304 53.96V28.872ZM105.648 31.048L116.784 39.112C103.856 49.608 80.304 60.36 62.256 65.864C60.208 61.896 56.496 56.392 53.168 53.064C71.344 49.352 94.384 40.008 105.648 31.048Z" fill="#ffffff"/>
</svg>
