<svg width="1224" height="488" viewBox="0 0 1224 488" fill="none" xmlns="http://www.w3.org/2000/svg">
<path d="M112.48 23.6C114.107 23.9467 115.413 24.76 116.4 26.04C117.387 27.2933 117.88 28.7333 117.88 30.36C117.88 32.7067 117.053 34.5733 115.4 35.96C113.773 37.32 111.493 38 108.56 38H95.48V9.92H108.12C110.973 9.92 113.2 10.5733 114.8 11.88C116.427 13.1867 117.24 14.96 117.24 17.2C117.24 18.8533 116.8 20.2267 115.92 21.32C115.067 22.4133 113.92 23.1733 112.48 23.6ZM102.32 21.28H106.8C107.92 21.28 108.773 21.04 109.36 20.56C109.973 20.0533 110.28 19.32 110.28 18.36C110.28 17.4 109.973 16.6667 109.36 16.16C108.773 15.6533 107.92 15.4 106.8 15.4H102.32V21.28ZM107.36 32.48C108.507 32.48 109.387 32.2267 110 31.72C110.64 31.1867 110.96 30.4267 110.96 29.44C110.96 28.4533 110.627 27.68 109.96 27.12C109.32 26.56 108.427 26.28 107.28 26.28H102.32V32.48H107.36ZM147.687 19.4C148.487 18.1733 149.487 17.2133 150.687 16.52C151.887 15.8 153.221 15.44 154.687 15.44V22.68H152.807C151.101 22.68 149.821 23.0533 148.967 23.8C148.114 24.52 147.687 25.8 147.687 27.64V38H140.847V15.68H147.687V19.4ZM175.597 26.8C175.597 24.5067 176.023 22.4933 176.877 20.76C177.757 19.0267 178.943 17.6933 180.437 16.76C181.93 15.8267 183.597 15.36 185.437 15.36C187.01 15.36 188.383 15.68 189.557 16.32C190.757 16.96 191.677 17.8 192.317 18.84V15.68H199.157V38H192.317V34.84C191.65 35.88 190.717 36.72 189.517 37.36C188.343 38 186.97 38.32 185.397 38.32C183.583 38.32 181.93 37.8533 180.437 36.92C178.943 35.96 177.757 34.6133 176.877 32.88C176.023 31.12 175.597 29.0933 175.597 26.8ZM192.317 26.84C192.317 25.1333 191.837 23.7867 190.877 22.8C189.943 21.8133 188.797 21.32 187.437 21.32C186.077 21.32 184.917 21.8133 183.957 22.8C183.023 23.76 182.557 25.0933 182.557 26.8C182.557 28.5067 183.023 29.8667 183.957 30.88C184.917 31.8667 186.077 32.36 187.437 32.36C188.797 32.36 189.943 31.8667 190.877 30.88C191.837 29.8933 192.317 28.5467 192.317 26.84ZM236.705 15.44C239.318 15.44 241.398 16.2933 242.945 18C244.518 19.68 245.305 22 245.305 24.96V38H238.505V25.88C238.505 24.3867 238.118 23.2267 237.345 22.4C236.572 21.5733 235.532 21.16 234.225 21.16C232.918 21.16 231.878 21.5733 231.105 22.4C230.332 23.2267 229.945 24.3867 229.945 25.88V38H223.105V15.68H229.945V18.64C230.638 17.6533 231.572 16.88 232.745 16.32C233.918 15.7333 235.238 15.44 236.705 15.44ZM267.698 26.8C267.698 24.5067 268.125 22.4933 268.978 20.76C269.858 19.0267 271.045 17.6933 272.538 16.76C274.031 15.8267 275.698 15.36 277.538 15.36C279.005 15.36 280.338 15.6667 281.538 16.28C282.765 16.8933 283.725 17.72 284.418 18.76V8.4H291.258V38H284.418V34.8C283.778 35.8667 282.858 36.72 281.658 37.36C280.485 38 279.111 38.32 277.538 38.32C275.698 38.32 274.031 37.8533 272.538 36.92C271.045 35.96 269.858 34.6133 268.978 32.88C268.125 31.12 267.698 29.0933 267.698 26.8ZM284.418 26.84C284.418 25.1333 283.938 23.7867 282.978 22.8C282.045 21.8133 280.898 21.32 279.538 21.32C278.178 21.32 277.018 21.8133 276.058 22.8C275.125 23.76 274.658 25.0933 274.658 26.8C274.658 28.5067 275.125 29.8667 276.058 30.88C277.018 31.8667 278.178 32.36 279.538 32.36C280.898 32.36 282.045 31.8667 282.978 30.88C283.938 29.8933 284.418 28.5467 284.418 26.84ZM318.607 13.36C317.407 13.36 316.42 13.0133 315.647 12.32C314.9 11.6 314.527 10.72 314.527 9.68C314.527 8.61333 314.9 7.73333 315.647 7.04C316.42 6.32 317.407 5.96 318.607 5.96C319.78 5.96 320.74 6.32 321.487 7.04C322.26 7.73333 322.647 8.61333 322.647 9.68C322.647 10.72 322.26 11.6 321.487 12.32C320.74 13.0133 319.78 13.36 318.607 13.36ZM322.047 40.88C322.047 43.6267 321.353 45.6 319.967 46.8C318.58 48.0267 316.647 48.64 314.167 48.64H311.487V42.84H313.127C313.873 42.84 314.407 42.6933 314.727 42.4C315.047 42.1067 315.207 41.6267 315.207 40.96V15.68H322.047V40.88ZM367.004 26.48C367.004 27.12 366.964 27.7867 366.884 28.48H351.404C351.511 29.8667 351.951 30.9333 352.724 31.68C353.524 32.4 354.498 32.76 355.644 32.76C357.351 32.76 358.538 32.04 359.204 30.6H366.484C366.111 32.0667 365.431 33.3867 364.444 34.56C363.484 35.7333 362.271 36.6533 360.804 37.32C359.338 37.9867 357.698 38.32 355.884 38.32C353.698 38.32 351.751 37.8533 350.044 36.92C348.338 35.9867 347.004 34.6533 346.044 32.92C345.084 31.1867 344.604 29.16 344.604 26.84C344.604 24.52 345.071 22.4933 346.004 20.76C346.964 19.0267 348.298 17.6933 350.004 16.76C351.711 15.8267 353.671 15.36 355.884 15.36C358.044 15.36 359.964 15.8133 361.644 16.72C363.324 17.6267 364.631 18.92 365.564 20.6C366.524 22.28 367.004 24.24 367.004 26.48ZM360.004 24.68C360.004 23.5067 359.604 22.5733 358.804 21.88C358.004 21.1867 357.004 20.84 355.804 20.84C354.658 20.84 353.684 21.1733 352.884 21.84C352.111 22.5067 351.631 23.4533 351.444 24.68H360.004ZM398.693 38.32C396.746 38.32 395.013 37.9867 393.493 37.32C391.973 36.6533 390.773 35.7467 389.893 34.6C389.013 33.4267 388.519 32.12 388.413 30.68H395.173C395.253 31.4533 395.613 32.08 396.253 32.56C396.893 33.04 397.679 33.28 398.613 33.28C399.466 33.28 400.119 33.12 400.573 32.8C401.053 32.4533 401.293 32.0133 401.293 31.48C401.293 30.84 400.959 30.3733 400.293 30.08C399.626 29.76 398.546 29.4133 397.053 29.04C395.453 28.6667 394.119 28.28 393.053 27.88C391.986 27.4533 391.066 26.8 390.293 25.92C389.519 25.0133 389.133 23.8 389.133 22.28C389.133 21 389.479 19.84 390.173 18.8C390.893 17.7333 391.933 16.8933 393.293 16.28C394.679 15.6667 396.319 15.36 398.213 15.36C401.013 15.36 403.213 16.0533 404.813 17.44C406.439 18.8267 407.373 20.6667 407.613 22.96H401.293C401.186 22.1867 400.839 21.5733 400.253 21.12C399.693 20.6667 398.946 20.44 398.013 20.44C397.213 20.44 396.599 20.6 396.173 20.92C395.746 21.2133 395.533 21.6267 395.533 22.16C395.533 22.8 395.866 23.28 396.533 23.6C397.226 23.92 398.293 24.24 399.733 24.56C401.386 24.9867 402.733 25.4133 403.773 25.84C404.813 26.24 405.719 26.9067 406.493 27.84C407.293 28.7467 407.706 29.9733 407.733 31.52C407.733 32.8267 407.359 34 406.613 35.04C405.893 36.0533 404.839 36.8533 403.453 37.44C402.093 38.0267 400.506 38.32 398.693 38.32Z" fill="black"/>
<path d="M31.744 71.216C26.368 78.704 16.704 87.28 6.272 93.296C5.312 91.504 3.072 88.688 1.344 87.088C12.224 81.392 22.656 71.472 27.456 63.6H35.328C42.24 73.328 52.736 81.904 62.784 86.384C60.864 88.304 59.072 90.928 57.664 93.232C48 87.728 37.312 78.64 31.744 71.216ZM18.56 82.544H45.312V89.52H18.56V82.544ZM8 95.024H50.88V102H8V95.024ZM46.592 95.024H54.528V111.536C54.528 115.12 53.696 117.232 51.008 118.384C48.32 119.536 44.608 119.664 39.744 119.664C39.36 117.424 38.208 114.224 37.12 112.176C40.256 112.368 44.224 112.304 45.184 112.304C46.272 112.304 46.592 112.112 46.592 111.344V95.024ZM23.104 96.688H31.232V123.76H23.104V96.688ZM35.776 171.208H54.912V178.568H35.776V171.208ZM33.024 132.68H58.688V183.176H50.816V139.976H40.512V183.624H33.024V132.68ZM14.272 133H21.952V186.696H14.272V133ZM2.752 145.736H31.296V152.84H2.752V145.736ZM13.76 148.424L18.88 150.152C16.128 160.52 11.136 172.616 5.248 179.144C4.48 176.904 2.688 173.896 1.408 171.912C6.72 166.28 11.584 156.616 13.76 148.424ZM26.56 127.176L31.552 133.192C24 135.88 13.824 137.736 5.12 138.76C4.8 137.032 3.84 134.408 3.008 132.744C11.392 131.592 20.736 129.544 26.56 127.176ZM21.248 153.224C23.232 155.08 30.208 163.08 31.744 165L27.328 171.336C25.216 167.432 20.096 160.136 17.6 156.872L21.248 153.224ZM7.104 195.488H56.64V203.104H7.104V195.488ZM3.392 239.072H60.8V246.688H3.392V239.072ZM24.896 198.176H33.664C31.104 213.536 27.328 232.48 24.576 243.936H15.872C19.072 232.032 22.848 213.024 24.896 198.176ZM9.216 214.24H50.752V242.656H42.816V221.792H9.216V214.24ZM15.872 252.408L23.68 254.392C20.288 263.928 14.656 273.144 8.96 278.904C7.488 277.56 4.224 275 2.368 273.912C8.128 268.92 13.12 260.728 15.872 252.408ZM17.216 259.704H57.92V267.128H13.504L17.216 259.704ZM12.672 274.808H56.448V281.976H20.416V295.416H12.672V274.808ZM2.56 291.64H61.44V299.064H2.56V291.64ZM31.488 263.544H39.424V312.76H31.488V263.544Z" fill="#F94C35"/>
<path d="M1140.15 487.664C1114.37 487.664 1094.7 479.867 1081.15 464.274C1067.6 448.516 1060.83 426.52 1060.83 398.288C1060.83 391.229 1061.22 383.515 1062.01 375.143C1062.8 366.608 1064.05 357.826 1065.76 348.798H1105.62V368.495C1105.62 394.758 1108.91 412.896 1115.48 422.909C1122.06 432.922 1130.28 437.929 1140.15 437.929C1149.88 437.929 1157.51 434.235 1163.04 426.849C1168.56 419.462 1171.32 406.905 1171.32 389.178V344.366C1171.32 326.474 1168.82 312.768 1163.83 303.248C1158.83 293.728 1149.75 288.967 1136.6 288.967H1115.09V243.417H1136.6C1145.15 243.417 1152.25 239.806 1157.91 232.584C1163.56 225.197 1166.39 212.804 1166.39 195.405V155.025C1166.39 124.823 1156.92 109.722 1137.98 109.722C1127.45 109.722 1119.3 115.713 1113.51 127.695C1107.72 139.678 1104.83 156.749 1104.83 178.908V199.098H1065.37C1064.05 190.891 1062.8 182.766 1061.62 174.723C1060.56 166.516 1060.04 157.898 1060.04 148.87C1060.04 134.589 1062.8 120.637 1068.33 107.013C1073.98 93.3891 1082.6 82.1452 1094.17 73.2814C1105.75 64.2535 1120.35 59.7395 1137.98 59.7395C1166.65 59.7395 1187.31 67.8647 1199.93 84.115C1212.69 100.201 1219.07 123.099 1219.07 152.809V178.662C1219.07 194.584 1217.03 208.208 1212.96 219.534C1208.88 230.696 1203.68 239.888 1197.37 247.11C1191.05 254.333 1184.48 259.996 1177.64 264.099V266.069C1190.79 271.65 1201.78 281.088 1210.59 294.384C1219.53 307.68 1224.01 328.116 1224.01 355.692V383.515C1224.01 409.285 1220.13 429.803 1212.36 445.069C1204.74 460.334 1194.54 471.25 1181.78 477.816C1169.15 484.381 1155.28 487.664 1140.15 487.664Z" fill="#F94C35"/>
<path d="M899.819 483.971V446.546L974.207 267.793C983.02 246.618 989.465 229.055 993.543 215.102C997.621 201.15 1000.25 189.496 1001.44 180.14C1002.75 170.619 1003.41 162.248 1003.41 155.025C1003.41 124.823 993.741 109.722 974.404 109.722C963.88 109.722 955.725 115.713 949.937 127.695C944.281 139.678 941.452 156.749 941.452 178.908V199.098H901.99C900.674 189.906 899.425 181.535 898.241 173.984C897.188 166.269 896.662 157.898 896.662 148.87C896.662 134.589 899.359 120.637 904.752 107.013C910.145 93.3891 918.564 82.1452 930.008 73.2814C941.452 64.2535 956.251 59.7395 974.404 59.7395C1003.87 59.7395 1025.05 68.1109 1037.94 84.8536C1050.83 101.596 1057.28 124.987 1057.28 155.025C1057.28 166.351 1056.22 177.677 1054.12 189.003C1052.15 200.165 1048.79 212.722 1044.06 226.675C1039.32 240.463 1032.94 256.959 1024.92 276.164L958.421 433.743H1056.88V483.971H899.819Z" fill="#F94C35"/>
<path d="M655.544 63.4328H695.994L778.274 339.934H779.458C778.931 331.235 778.208 321.55 777.287 310.881C776.498 300.047 775.774 287.08 775.117 271.978C774.459 256.877 774.13 238.493 774.13 216.826V63.4328H819.512V483.971H778.668L696.783 214.856H695.205C695.862 224.705 696.586 235.456 697.375 247.111C698.164 258.765 698.888 273.456 699.545 291.183C700.203 308.911 700.532 331.973 700.532 360.37V483.971H655.544V63.4328Z" fill="black"/>
<path d="M529.461 63.4328H587.076L650.02 483.971H598.718L589.444 408.629H527.093L518.214 483.971H466.715L529.461 63.4328ZM583.525 360.616L559.452 150.101H557.282L533.012 360.616H583.525Z" fill="black"/>
<path d="M331.16 63.4328H382.264C390.026 63.4328 398.51 64.0893 407.718 65.4025C417.058 66.5515 426.331 69.342 435.539 73.7739C444.747 78.0416 453.166 84.8536 460.795 94.2099C468.556 103.566 474.739 116.287 479.343 132.373C483.947 148.46 486.249 168.896 486.249 193.681V208.454C486.249 235.374 484.079 257.78 479.738 275.672C475.528 293.563 469.872 307.926 462.769 318.76C455.665 329.429 447.707 337.472 438.894 342.889C430.212 348.141 421.398 351.671 412.454 353.476C403.509 355.118 395.09 355.938 387.197 355.938H382.264V483.971H331.16V63.4328ZM384.83 309.157C403.377 309.157 416.137 302.263 423.108 288.475C430.212 274.687 433.763 251.953 433.763 220.273V182.355C433.763 157.406 430.409 139.021 423.7 127.203C417.123 115.385 404.166 109.475 384.83 109.475H382.264V309.157H384.83Z" fill="black"/>
<path d="M205.076 63.4328H262.692L325.635 483.971H274.334L265.06 408.629H202.709L193.83 483.971H142.331L205.076 63.4328ZM259.14 360.616L235.068 150.101H232.898L208.628 360.616H259.14Z" fill="black"/>
<path d="M5 394.841C5 385.977 5.4604 375.964 6.3812 364.802C7.302 353.64 8.6832 342.561 10.5248 331.563H51.3688V381.052C51.3688 402.72 52.9473 417.657 56.1043 425.864C59.3929 433.907 64.6546 437.929 71.8895 437.929C78.072 437.929 82.8733 434.564 86.2934 427.834C89.845 421.104 91.6209 408.218 91.6209 389.178V63.4328H142.725V382.037C142.725 411.091 139.305 433.25 132.465 448.516C125.756 463.617 117.009 473.958 106.222 479.539C95.4356 485.12 83.9914 487.911 71.8895 487.911C54.9205 487.911 41.5689 483.725 31.8347 475.354C22.1006 466.818 15.1946 455.492 11.1167 441.376C7.03891 427.259 5 411.747 5 394.841Z" fill="black"/>
</svg>
